<?xml version="1.0" encoding="UTF-8" standalone="yes"?>
<!-- Created with sK1/UniConvertor (http://sk1project.org/) -->
<svg xmlns="http://www.w3.org/2000/svg" xmlns:xlink="http://www.w3.org/1999/xlink"
  viewBox="0 682 824 160"
  fill-rule="evenodd">
<g>
<path style="stroke:#008dbb; stroke-width:0.850394; stroke-linejoin:round; stroke-linecap:round; fill:#008dbb" d="M 388.887 689.977C 388.887 685.952 390.518 684.322 392.003 683.506C 393.489 682.691 394.83 682.691 395.5 682.691C 396.171 682.691 396.171 682.691 396.841 682.691C 397.512 682.691 398.853 682.691 400.067 683.235C 401.281 683.778 402.369 684.865 402.913 686.079C 403.457 687.294 403.457 688.635 403.457 689.306C 403.457 689.977 403.457 689.977 403.457 689.977C 403.457 689.977 403.457 689.977 403.457 697.509C 403.457 705.041 403.457 720.104 403.457 727.636C 403.457 735.167 403.457 735.167 403.457 735.167C 403.457 735.167 403.457 735.167 403.457 735.167C 403.457 735.167 403.457 735.167 403.452 735.182C 403.447 735.196 403.437 735.225 403.432 735.239C 403.426 735.254 403.426 735.254 403.426 735.254C 403.426 735.254 403.426 735.254 403.426 735.257C 403.426 735.26 403.426 735.266 403.398 736.307C 403.369 737.348 403.311 739.425 404.444 740.536C 405.576 741.648 407.898 741.796 409.059 741.869C 410.22 741.943 410.22 741.943 410.22 741.943C 410.22 741.943 410.22 741.943 410.22 741.941C 410.22 741.939 410.22 741.935 410.22 741.932C 410.22 741.93 410.22 741.93 410.22 741.93C 410.22 741.93 410.22 741.93 410.22 741.93C 410.22 741.93 410.22 741.93 415.474 741.93C 420.727 741.93 431.234 741.93 436.488 741.93C 441.742 741.93 441.742 741.93 441.742 741.93C 441.742 741.93 441.742 741.93 442.413 741.93C 443.083 741.93 444.425 741.93 445.64 742.474C 446.854 743.018 447.941 744.106 448.484 745.32C 449.028 746.535 449.028 747.876 449.028 748.546C 449.028 749.216 449.028 749.216 449.028 749.887C 449.028 750.558 449.028 751.9 448.484 753.115C 447.941 754.33 446.854 755.417 445.64 755.961C 444.425 756.505 443.083 756.505 442.413 756.505C 441.742 756.505 441.742 756.505 441.742 756.505C 441.742 756.505 441.742 756.505 436.488 756.505C 431.234 756.505 420.727 756.505 415.474 756.505C 410.22 756.505 410.22 756.505 410.22 756.505C 410.22 756.505 410.22 756.505 410.22 756.505C 410.22 756.505 410.22 756.505 410.173 756.5C 410.125 756.495 410.03 756.485 409.983 756.48C 409.935 756.475 409.935 756.475 409.935 756.475C 409.935 756.475 409.935 756.475 406.465 756.338C 402.995 756.201 396.054 755.928 392.548 752.612C 389.043 749.296 388.973 742.938 388.939 739.523C 388.906 736.109 388.909 735.638 388.911 735.403C 388.912 735.167 388.912 735.167 388.912 735.167C 388.912 735.167 388.912 735.167 388.908 735.167C 388.904 735.167 388.896 735.167 388.891 735.167C 388.887 735.167 388.887 735.167 388.887 735.167C 388.887 735.167 388.887 735.167 388.887 735.167C 388.887 735.167 388.887 735.167 388.887 723.87C 388.887 712.572 388.887 689.977 388.887 689.977"/>
<path style="stroke:#008dbb; stroke-width:0.850394; stroke-linejoin:round; stroke-linecap:round; fill:#008dbb" d="M 303.622 689.977C 303.622 685.952 305.252 684.322 306.739 683.506C 308.226 682.691 309.57 682.691 310.241 682.691C 310.913 682.691 310.913 682.691 311.584 682.691C 312.254 682.691 313.595 682.691 314.809 683.235C 316.023 683.778 317.11 684.865 317.653 686.079C 318.197 687.294 318.197 688.635 318.197 689.306C 318.197 689.977 318.197 689.977 318.197 689.977C 318.197 689.977 318.197 689.977 318.197 697.509C 318.197 705.041 318.197 720.104 318.197 727.636C 318.197 735.167 318.197 735.167 318.197 735.167C 318.197 735.167 318.197 735.167 318.197 735.167C 318.197 735.167 318.197 735.167 318.193 735.182C 318.188 735.196 318.18 735.225 318.176 735.239C 318.171 735.254 318.171 735.254 318.171 735.254C 318.171 735.254 318.171 735.254 318.171 735.257C 318.171 735.26 318.171 735.266 318.141 736.307C 318.111 737.348 318.051 739.425 319.182 740.536C 320.313 741.648 322.635 741.796 323.796 741.869C 324.957 741.943 324.957 741.943 324.957 741.943C 324.957 741.943 324.957 741.943 324.957 741.941C 324.957 741.939 324.957 741.935 324.957 741.932C 324.957 741.93 324.957 741.93 324.957 741.93C 324.957 741.93 324.957 741.93 324.957 741.93C 324.957 741.93 324.957 741.93 333.09 741.93C 341.222 741.93 357.486 741.93 365.619 741.93C 373.751 741.93 373.751 741.93 373.751 741.93C 373.751 741.93 373.751 741.93 374.421 741.93C 375.092 741.93 376.433 741.93 377.647 742.474C 378.862 743.018 379.949 744.106 380.493 745.32C 381.037 746.535 381.037 747.876 381.037 748.546C 381.037 749.216 381.037 749.216 381.037 749.887C 381.037 750.558 381.037 751.9 380.493 753.115C 379.949 754.33 378.862 755.417 377.647 755.961C 376.433 756.505 375.092 756.505 374.421 756.505C 373.751 756.505 373.751 756.505 373.751 756.505C 373.751 756.505 373.751 756.505 365.619 756.505C 357.486 756.505 341.222 756.505 333.09 756.505C 324.957 756.505 324.957 756.505 324.957 756.505C 324.957 756.505 324.957 756.505 324.957 756.505C 324.957 756.505 324.957 756.505 324.91 756.5C 324.862 756.495 324.768 756.485 324.72 756.48C 324.673 756.475 324.673 756.475 324.673 756.475C 324.673 756.475 324.673 756.475 321.202 756.338C 317.732 756.201 310.791 755.928 307.285 752.612C 303.779 749.296 303.708 742.938 303.675 739.523C 303.642 736.109 303.647 735.638 303.65 735.403C 303.652 735.167 303.652 735.167 303.652 735.167C 303.652 735.167 303.652 735.167 303.647 735.167C 303.642 735.167 303.632 735.167 303.627 735.167C 303.622 735.167 303.622 735.167 303.622 735.167C 303.622 735.167 303.622 735.167 303.622 735.167C 303.622 735.167 303.622 735.167 303.622 723.87C 303.622 712.572 303.622 689.977 303.622 689.977"/>
<path style="stroke:#008dbb; stroke-width:0.850394; stroke-linejoin:round; stroke-linecap:round; fill:#008dbb" d="M 245.269 727.018C 241.246 727.018 239.613 725.386 238.797 723.899C 237.98 722.412 237.98 721.071 237.98 720.4C 237.98 719.729 237.98 719.729 237.98 719.058C 237.98 718.388 237.98 717.047 238.525 715.833C 239.069 714.618 240.158 713.531 241.372 712.987C 242.587 712.443 243.928 712.443 244.599 712.443C 245.269 712.443 245.269 712.443 245.269 712.443C 245.269 712.443 245.269 712.443 251.508 712.443C 257.748 712.443 270.227 712.443 276.466 712.443C 282.706 712.443 282.706 712.443 282.706 712.443C 282.706 712.443 282.706 712.443 283.376 712.443C 284.046 712.443 285.387 712.443 286.602 712.987C 287.816 713.531 288.904 714.618 289.448 715.833C 289.992 717.047 289.992 718.388 289.992 719.058C 289.992 719.729 289.992 719.729 289.992 720.4C 289.992 721.071 289.992 722.412 289.448 723.627C 288.904 724.842 287.816 725.93 286.602 726.474C 285.387 727.018 284.046 727.018 283.376 727.018C 282.706 727.018 282.706 727.018 282.706 727.018C 282.706 727.018 282.706 727.018 273.346 727.018C 263.987 727.018 245.269 727.018 245.269 727.018"/>
<path style="stroke:#008dbb; stroke-width:0.850394; stroke-linejoin:round; stroke-linecap:round; fill:#008dbb" d="M 248.614 756.904C 248.197 756.904 247.994 756.899 247.825 756.894C 247.656 756.889 247.522 756.884 247.454 756.881C 247.387 756.878 247.387 756.878 247.387 756.878C 247.387 756.878 247.387 756.878 247.034 756.878C 246.681 756.878 245.975 756.878 245.622 756.878C 245.269 756.878 245.269 756.878 245.269 756.878C 245.269 756.878 245.269 756.878 245.12 756.878C 244.972 756.878 244.675 756.878 244.383 756.852C 244.092 756.825 243.807 756.772 243.533 756.696C 243.259 756.62 242.997 756.522 242.866 756.473C 242.734 756.424 242.734 756.424 241.422 756.212C 240.109 756.001 237.484 755.577 234.997 754.742C 232.509 753.906 230.159 752.659 228.085 751.135C 226.011 749.612 224.213 747.813 223.314 746.913C 222.415 746.014 222.415 746.014 221.294 744.893C 220.172 743.771 217.93 741.529 216.115 738.859C 214.299 736.189 212.911 733.092 212.217 729.832C 211.522 726.572 211.522 723.151 211.522 721.44C 211.522 719.729 211.522 719.729 211.522 718.019C 211.522 716.309 211.522 712.889 212.217 709.63C 212.911 706.37 214.299 703.272 216.115 700.602C 217.93 697.931 220.172 695.689 221.294 694.568C 222.415 693.446 222.415 693.446 223.323 692.538C 224.232 691.631 226.048 689.815 228.145 688.279C 230.241 686.743 232.617 685.488 235.133 684.655C 237.649 683.821 240.305 683.41 241.633 683.204C 242.96 682.998 242.96 682.998 243.082 682.959C 243.203 682.919 243.445 682.839 243.695 682.777C 243.945 682.716 244.203 682.672 244.467 682.65C 244.731 682.628 245 682.628 245.134 682.628C 245.269 682.628 245.269 682.628 245.269 682.628C 245.269 682.628 245.269 682.628 245.467 682.628C 245.665 682.628 246.061 682.628 246.259 682.628C 246.458 682.628 246.458 682.628 246.458 682.628C 246.458 682.628 246.458 682.628 246.577 682.62C 246.696 682.613 246.935 682.599 247.173 682.587C 247.412 682.576 247.649 682.568 247.889 682.563C 248.129 682.558 248.372 682.557 248.493 682.557C 248.614 682.557 248.614 682.557 248.614 682.557C 248.614 682.557 248.614 682.557 248.614 682.568C 248.614 682.58 248.614 682.604 248.614 682.616C 248.614 682.628 248.614 682.628 248.614 682.628C 248.614 682.628 248.614 682.628 248.614 682.628C 248.614 682.628 248.614 682.628 254.296 682.628C 259.978 682.628 271.342 682.628 277.024 682.628C 282.706 682.628 282.706 682.628 282.706 682.628C 282.706 682.628 282.706 682.628 283.376 682.628C 284.046 682.628 285.387 682.628 286.602 683.171C 287.816 683.714 288.904 684.8 289.448 686.014C 289.992 687.229 289.992 688.571 289.992 689.242C 289.992 689.914 289.992 689.914 289.992 690.584C 289.992 691.255 289.992 692.596 289.448 693.81C 288.904 695.024 287.816 696.112 286.602 696.656C 285.387 697.2 284.046 697.2 283.376 697.2C 282.706 697.2 282.706 697.2 282.706 697.2C 282.706 697.2 282.706 697.2 276.746 697.2C 270.786 697.2 258.867 697.2 252.907 697.2C 246.948 697.2 246.948 697.2 246.948 697.2C 246.948 697.2 246.948 697.2 246.024 697.271C 245.1 697.341 243.252 697.483 241.497 697.958C 239.742 698.432 238.08 699.241 236.632 700.262C 235.184 701.284 233.95 702.518 233.333 703.135C 232.716 703.752 232.716 703.752 232.035 704.434C 231.354 705.115 229.991 706.478 228.888 708.101C 227.785 709.724 226.941 711.606 226.519 713.588C 226.097 715.569 226.097 717.649 226.097 718.689C 226.097 719.729 226.097 719.729 226.097 720.769C 226.097 721.81 226.097 723.891 226.519 725.872C 226.941 727.854 227.785 729.737 228.888 731.36C 229.991 732.982 231.354 734.345 232.035 735.027C 232.716 735.708 232.716 735.708 233.36 736.352C 234.004 736.997 235.293 738.285 236.813 739.341C 238.333 740.397 240.086 741.221 241.933 741.676C 243.781 742.132 245.724 742.219 246.695 742.263C 247.666 742.306 247.666 742.306 247.666 742.306C 247.666 742.306 247.666 742.306 253.506 742.306C 259.346 742.306 271.026 742.306 276.866 742.306C 282.706 742.306 282.706 742.306 282.706 742.306C 282.706 742.306 282.706 742.306 283.376 742.306C 284.046 742.306 285.387 742.306 286.602 742.85C 287.816 743.393 288.904 744.48 289.448 745.695C 289.992 746.91 289.992 748.252 289.992 748.924C 289.992 749.595 289.992 749.595 289.992 750.265C 289.992 750.936 289.992 752.277 289.448 753.491C 288.904 754.705 287.816 755.792 286.602 756.335C 285.387 756.878 284.046 756.878 283.376 756.878C 282.706 756.878 282.706 756.878 282.706 756.878C 282.706 756.878 282.706 756.878 277.024 756.878C 271.342 756.878 259.978 756.878 254.296 756.878C 248.614 756.878 248.614 756.878 248.614 756.878C 248.614 756.878 248.614 756.878 248.614 756.878C 248.614 756.878 248.614 756.878 248.614 756.885C 248.614 756.891 248.614 756.904 248.614 756.904"/>
<path style="stroke:#008dbb; stroke-width:0.850394; stroke-linejoin:round; stroke-linecap:round; fill:#008dbb" d="M 177.136 749.338C 177.136 753.366 175.507 754.998 174.021 755.814C 172.536 756.63 171.194 756.63 170.523 756.63C 169.852 756.63 169.852 756.63 169.182 756.63C 168.511 756.63 167.169 756.63 165.954 756.086C 164.74 755.542 163.653 754.454 163.11 753.239C 162.566 752.024 162.566 750.681 162.566 750.01C 162.566 749.338 162.566 749.338 162.566 749.338C 162.566 749.338 162.566 749.338 162.566 742.458C 162.566 735.577 162.566 721.816 162.566 714.935C 162.566 708.054 162.566 708.054 162.566 708.054C 162.566 708.054 162.566 708.054 162.566 707.383C 162.566 706.713 162.566 705.371 163.11 704.156C 163.653 702.941 164.74 701.853 165.954 701.309C 167.169 700.766 168.511 700.766 169.182 700.766C 169.852 700.766 169.852 700.766 170.523 700.766C 171.194 700.766 172.536 700.766 173.75 701.309C 174.964 701.853 176.05 702.941 176.593 704.156C 177.136 705.371 177.136 706.713 177.136 707.383C 177.136 708.054 177.136 708.054 177.136 708.054C 177.136 708.054 177.136 708.054 177.136 718.375C 177.136 728.696 177.136 749.338 177.136 749.338"/>
<path style="stroke:#008dbb; stroke-width:0.850394; stroke-linejoin:round; stroke-linecap:round; fill:#008dbb" d="M 137.876 696.755C 133.851 696.755 132.219 695.124 131.403 693.637C 130.587 692.15 130.587 690.809 130.587 690.138C 130.587 689.467 130.587 689.467 130.587 688.796C 130.587 688.126 130.587 686.785 131.131 685.571C 131.675 684.356 132.763 683.268 133.978 682.724C 135.193 682.181 136.534 682.181 137.205 682.181C 137.876 682.181 137.876 682.181 137.876 682.181C 137.876 682.181 137.876 682.181 148.535 682.181C 159.194 682.181 180.513 682.181 191.172 682.181C 201.831 682.181 201.831 682.181 201.831 682.181C 201.831 682.181 201.831 682.181 202.502 682.181C 203.172 682.181 204.513 682.181 205.728 682.724C 206.942 683.268 208.03 684.356 208.574 685.571C 209.117 686.785 209.117 688.126 209.117 688.796C 209.117 689.467 209.117 689.467 209.117 690.138C 209.117 690.809 209.117 692.15 208.574 693.365C 208.03 694.58 206.942 695.668 205.728 696.212C 204.513 696.755 203.172 696.755 202.502 696.755C 201.831 696.755 201.831 696.755 201.831 696.755C 201.831 696.755 201.831 696.755 185.842 696.755C 169.854 696.755 137.876 696.755 137.876 696.755"/>
<path style="stroke:#008dbb; stroke-width:0.850394; stroke-linejoin:round; stroke-linecap:round; fill:#008dbb" d="M 37.5483 756.904C 47.7754 756.878 52.4051 754.801 55.8382 752.644C 59.2714 750.487 61.5079 748.251 62.6262 747.132C 63.7445 746.014 63.7445 746.014 64.8653 744.893C 65.9861 743.771 68.2278 741.529 70.0423 738.859C 71.8569 736.189 73.2444 733.092 73.9381 729.832C 74.6318 726.572 74.6318 723.151 74.6318 721.44C 74.6318 719.729 74.6318 719.729 74.6318 718.019C 74.6318 716.309 74.6318 712.889 73.9381 709.63C 73.2444 706.37 71.8569 703.272 70.0423 700.602C 68.2278 697.931 65.9861 695.689 64.8653 694.568C 63.7445 693.446 63.7445 693.446 62.6262 692.328C 61.5079 691.211 59.2714 688.975 56.6098 687.165C 53.9483 685.354 50.8618 683.969 47.6141 683.272C 44.3663 682.575 40.9573 682.566 39.2528 682.561C 37.5483 682.557 37.5483 682.557 37.5483 682.557C 37.5483 682.557 37.5483 682.557 37.5483 682.559C 37.5483 682.562 37.5483 682.568 37.5483 682.571C 37.5483 682.574 37.5483 682.574 37.5483 682.574C 37.5483 682.574 37.5483 682.574 36.8969 682.598C 36.2455 682.621 34.9426 682.667 33.7706 683.226C 32.5986 683.785 31.5573 684.856 31.0367 686.048C 30.5161 687.24 30.5161 688.554 30.5161 689.211C 30.5161 689.868 30.5161 689.868 30.5161 690.539C 30.5161 691.211 30.5161 692.553 31.0608 693.769C 31.6056 694.985 32.6951 696.075 33.9111 696.62C 35.1272 697.164 36.4698 697.164 37.1411 697.164C 37.8124 697.164 37.8124 697.164 37.8391 697.164C 37.8658 697.164 37.9191 697.164 37.9733 697.164C 38.0274 697.163 38.0825 697.161 38.1366 697.158C 38.1908 697.155 38.2442 697.151 38.2708 697.149C 38.2975 697.147 38.2975 697.147 39.2816 697.183C 40.2657 697.219 42.2339 697.291 44.1069 697.74C 45.9798 698.19 47.7576 699.018 49.297 700.083C 50.8364 701.148 52.1376 702.45 52.7881 703.101C 53.4387 703.752 53.4387 703.752 54.1206 704.434C 54.8025 705.115 56.1663 706.478 57.2697 708.101C 58.3732 709.724 59.2163 711.606 59.6379 713.588C 60.0595 715.569 60.0595 717.649 60.0595 718.689C 60.0595 719.729 60.0595 719.729 60.0595 720.769C 60.0595 721.81 60.0595 723.891 59.6379 725.872C 59.2163 727.854 58.3732 729.737 57.2697 731.36C 56.1663 732.982 54.8025 734.345 54.1206 735.027C 53.4387 735.708 53.4387 735.708 52.7898 736.358C 52.141 737.007 50.8432 738.305 49.3084 739.369C 47.7737 740.432 46.0019 741.26 44.1344 741.711C 42.2669 742.163 40.3038 742.238 39.3222 742.276C 38.3407 742.314 38.3407 742.314 38.3119 742.311C 38.2831 742.309 38.2255 742.304 38.1671 742.3C 38.1087 742.296 38.0494 742.293 37.9902 742.292C 37.9309 742.291 37.8717 742.291 37.842 742.291C 37.8124 742.291 37.8124 742.291 37.1411 742.291C 36.4698 742.291 35.1272 742.291 33.9111 742.836C 32.6951 743.38 31.6056 744.47 31.0608 745.687C 30.5161 746.904 30.5161 748.248 30.5161 748.92C 30.5161 749.592 30.5161 749.592 30.5161 750.249C 30.5161 750.905 30.5161 752.218 31.0367 753.411C 31.5573 754.603 32.5986 755.675 33.7706 756.233C 34.9426 756.792 36.2455 756.838 36.8969 756.861C 37.5483 756.884 37.5483 756.884 37.5483 756.884C 37.5483 756.884 37.5483 756.884 37.5483 756.889C 37.5483 756.894 37.5483 756.904 37.5483 756.904"/>
<path style="stroke:#008dbb; stroke-width:0.850394; stroke-linejoin:round; stroke-linecap:round; fill:#008dbb" d="M 113.765 742.291C 117.795 742.291 119.429 743.925 120.247 745.414C 121.064 746.904 121.064 748.248 121.064 748.92C 121.064 749.592 121.064 749.592 121.064 750.249C 121.064 750.905 121.064 752.218 120.542 753.411C 120.021 754.603 118.978 755.675 117.806 756.233C 116.634 756.792 115.333 756.838 114.682 756.861C 114.032 756.884 114.032 756.884 114.032 756.884C 114.032 756.884 114.032 756.884 114.032 756.887C 114.032 756.89 114.032 756.897 114.032 756.901C 114.032 756.904 114.032 756.904 114.032 756.904C 114.032 756.904 114.032 756.904 112.327 756.9C 110.622 756.895 107.212 756.887 103.963 756.19C 100.715 755.494 97.6273 754.109 94.9657 752.298C 92.3042 750.487 90.0685 748.251 88.9507 747.132C 87.8328 746.014 87.8328 746.014 86.7115 744.893C 85.5903 743.771 83.3478 741.529 81.5328 738.859C 79.7179 736.189 78.3304 733.092 77.6366 729.832C 76.9429 726.572 76.9429 723.151 76.9429 721.44C 76.9429 719.729 76.9429 719.729 76.9429 718.019C 76.9429 716.309 76.9429 712.889 77.6366 709.63C 78.3304 706.37 79.7179 703.272 81.5328 700.602C 83.3478 697.931 85.5903 695.689 86.7115 694.568C 87.8328 693.446 87.8328 693.446 88.9507 692.328C 90.0685 691.211 92.3042 688.975 94.9657 687.165C 97.6273 685.354 100.715 683.969 103.963 683.272C 107.212 682.575 110.622 682.566 112.327 682.561C 114.032 682.557 114.032 682.557 114.032 682.557C 114.032 682.557 114.032 682.557 114.032 682.559C 114.032 682.562 114.032 682.568 114.032 682.571C 114.032 682.574 114.032 682.574 114.032 682.574C 114.032 682.574 114.032 682.574 114.682 682.598C 115.333 682.621 116.634 682.667 117.806 683.226C 118.978 683.785 120.021 684.856 120.542 686.048C 121.064 687.24 121.064 688.554 121.064 689.211C 121.064 689.868 121.064 689.868 121.064 690.539C 121.064 691.211 121.064 692.553 120.519 693.769C 119.974 694.985 118.885 696.075 117.668 696.62C 116.452 697.164 115.108 697.164 114.437 697.164C 113.765 697.164 113.765 697.164 113.738 697.164C 113.711 697.164 113.657 697.164 113.602 697.164C 113.548 697.163 113.494 697.161 113.441 697.158C 113.387 697.155 113.335 697.151 113.309 697.149C 113.282 697.147 113.282 697.147 112.297 697.183C 111.312 697.219 109.343 697.291 107.47 697.74C 105.597 698.19 103.821 699.018 102.282 700.083C 100.743 701.148 99.4406 702.45 98.7896 703.101C 98.1386 703.752 98.1386 703.752 97.4567 704.434C 96.7748 705.115 95.411 706.478 94.3071 708.101C 93.2032 709.724 92.3592 711.606 91.9372 713.588C 91.5152 715.569 91.5152 717.649 91.5152 718.689C 91.5152 719.729 91.5152 719.729 91.5152 720.769C 91.5152 721.81 91.5152 723.891 91.9372 725.872C 92.3592 727.854 93.2032 729.737 94.3071 731.36C 95.411 732.982 96.7748 734.345 97.4567 735.027C 98.1386 735.708 98.1386 735.708 98.7879 736.358C 99.4372 737.007 100.736 738.305 102.27 739.369C 103.804 740.432 105.575 741.26 107.441 741.711C 109.308 742.163 111.271 742.238 112.253 742.276C 113.234 742.314 113.234 742.314 113.264 742.311C 113.293 742.309 113.353 742.304 113.426 742.299C 113.499 742.295 113.587 742.291 113.765 742.291"/>
<path style="stroke:#008dbb; stroke-width:0.850394; stroke-linejoin:round; stroke-linecap:round; fill:#008dbb" d="M 459.153 741.93C 463.138 741.93 464.753 743.545 465.561 745.017C 466.368 746.489 466.368 747.817 466.368 748.481C 466.368 749.145 466.368 749.145 466.368 749.809C 466.368 750.474 466.368 751.802 465.83 753.004C 465.292 754.206 464.215 755.282 463.012 755.82C 461.81 756.358 460.482 756.358 459.817 756.358C 459.153 756.358 459.153 756.358 458.489 756.358C 457.825 756.358 456.497 756.358 455.294 755.82C 454.092 755.282 453.015 754.206 452.477 753.004C 451.938 751.802 451.938 750.474 451.938 749.809C 451.938 749.145 451.938 749.145 451.938 748.481C 451.938 747.817 451.938 746.489 452.746 745.017C 453.553 743.545 455.169 741.93 459.153 741.93"/>
<path style="stroke:#008dbb; stroke-width:0.850394; stroke-linejoin:round; stroke-linecap:round; fill:#008dbb" d="M 488.57 753.366C 488.57 753.366 488.57 741.425 488.57 735.454C 488.57 729.484 488.57 729.484 488.57 729.484C 488.57 729.484 488.57 729.484 488.355 729.964C 488.14 730.444 487.71 731.405 487.299 732.25C 486.888 733.094 486.496 733.822 486.122 734.427C 485.748 735.031 485.393 735.512 485.215 735.752C 485.037 735.993 485.037 735.993 484.716 736.406C 484.395 736.819 483.752 737.645 483.075 738.161C 482.398 738.678 481.686 738.884 480.937 738.783C 480.188 738.681 479.403 738.272 479.01 738.067C 478.617 737.862 478.617 737.862 478.261 737.586C 477.906 737.31 477.195 736.758 476.787 736.118C 476.38 735.478 476.275 734.75 476.471 733.938C 476.667 733.125 477.163 732.229 477.411 731.781C 477.66 731.332 477.66 731.332 478.586 729.85C 479.513 728.368 481.366 725.403 482.898 722.509C 484.431 719.614 485.643 716.789 486.535 714.03C 487.427 711.271 487.998 708.578 488.284 707.232C 488.57 705.885 488.57 705.885 488.57 705.885C 488.57 705.885 488.57 705.885 487.392 705.885C 486.215 705.885 483.86 705.885 482.682 705.885C 481.505 705.885 481.505 705.885 481.505 705.885C 481.505 705.885 481.505 705.885 480.793 705.404C 480.081 704.923 478.658 703.96 477.947 702.997C 477.235 702.034 477.235 701.069 477.947 700.104C 478.658 699.138 480.081 698.17 480.793 697.686C 481.505 697.202 481.505 697.202 481.505 697.202C 481.505 697.202 481.505 697.202 482.682 697.202C 483.86 697.202 486.215 697.202 487.392 697.202C 488.57 697.202 488.57 697.202 488.57 697.202C 488.57 697.202 488.57 697.202 488.57 697.202C 488.57 697.202 488.57 697.202 488.57 695.289C 488.57 693.376 488.57 689.55 488.57 687.637C 488.57 685.723 488.57 685.723 488.57 685.723C 488.57 685.723 488.57 685.723 488.57 685.412C 488.57 685.101 488.57 684.479 488.8 683.996C 489.029 683.513 489.489 683.169 490.185 682.964C 490.88 682.759 491.811 682.692 492.277 682.658C 492.742 682.625 492.742 682.625 493.205 682.625C 493.668 682.625 494.593 682.625 495.304 682.779C 496.016 682.933 496.514 683.241 496.799 683.707C 497.084 684.172 497.157 684.796 497.194 685.107C 497.23 685.419 497.23 685.419 497.23 685.419C 497.23 685.419 497.23 685.419 497.23 687.383C 497.23 689.347 497.23 693.275 497.23 695.239C 497.23 697.202 497.23 697.202 497.23 697.202C 497.23 697.202 497.23 697.202 497.23 697.202C 497.23 697.202 497.23 697.202 498.298 697.202C 499.366 697.202 501.502 697.202 502.569 697.202C 503.637 697.202 503.637 697.202 503.637 697.202C 503.637 697.202 503.637 697.202 503.995 697.238C 504.352 697.273 505.066 697.343 505.62 697.619C 506.174 697.894 506.566 698.375 506.797 699.064C 507.028 699.752 507.096 700.649 507.131 701.097C 507.165 701.545 507.165 701.545 507.131 702.028C 507.096 702.511 507.028 703.477 506.797 704.2C 506.566 704.924 506.174 705.405 505.62 705.645C 505.066 705.885 504.352 705.885 503.995 705.885C 503.637 705.885 503.637 705.885 503.637 705.885C 503.637 705.885 503.637 705.885 502.569 705.885C 501.502 705.885 499.366 705.885 498.298 705.885C 497.23 705.885 497.23 705.885 497.23 705.885C 497.23 705.885 497.23 705.885 497.23 705.885C 497.23 705.885 497.23 705.885 497.23 706.404C 497.23 706.923 497.23 707.961 497.23 708.48C 497.23 708.999 497.23 708.999 497.23 708.999C 497.23 708.999 497.23 708.999 497.8 709.515C 498.37 710.032 499.51 711.065 500.578 712.082C 501.646 713.099 502.642 714.1 503.568 715.085C 504.494 716.069 505.351 717.037 505.779 717.521C 506.207 718.005 506.207 718.005 506.422 718.381C 506.636 718.758 507.064 719.511 507.26 720.234C 507.456 720.957 507.42 721.65 507.153 722.305C 506.886 722.96 506.389 723.578 506.141 723.887C 505.893 724.196 505.893 724.196 505.607 724.508C 505.322 724.819 504.751 725.442 504.181 725.789C 503.61 726.136 503.04 726.206 502.47 725.998C 501.899 725.791 501.33 725.306 501.045 725.063C 500.76 724.821 500.76 724.821 500.546 724.649C 500.332 724.477 499.903 724.133 499.493 723.771C 499.082 723.409 498.689 723.028 498.315 722.63C 497.941 722.232 497.585 721.817 497.408 721.61C 497.23 721.403 497.23 721.403 497.23 721.403C 497.23 721.403 497.23 721.403 497.23 726.575C 497.23 731.747 497.23 742.092 497.23 747.264C 497.23 752.437 497.23 752.437 497.23 752.437C 497.23 752.437 497.23 752.437 497.23 752.23C 497.23 752.023 497.23 751.609 497.354 751.161C 497.477 750.713 497.724 750.231 498.098 749.715C 498.473 749.199 498.974 748.648 499.224 748.372C 499.475 748.096 499.475 748.096 499.582 747.924C 499.689 747.752 499.903 747.407 500.099 747.096C 500.295 746.785 500.473 746.508 500.633 746.265C 500.793 746.022 500.935 745.815 501.006 745.711C 501.077 745.608 501.077 745.608 502.074 744.023C 503.07 742.439 505.063 739.27 506.648 734.857C 508.232 730.444 509.409 724.787 510.175 717.891C 510.941 710.994 511.297 702.859 511.475 698.791C 511.652 694.724 511.652 694.724 511.652 694.724C 511.652 694.724 511.652 694.724 510.852 694.724C 510.051 694.724 508.449 694.724 507.648 694.724C 506.847 694.724 506.847 694.724 506.847 694.724C 506.847 694.724 506.847 694.724 506.455 694.724C 506.064 694.724 505.28 694.724 504.673 694.481C 504.067 694.239 503.639 693.754 503.391 693.03C 503.142 692.307 503.074 691.345 503.039 690.864C 503.005 690.384 503.005 690.384 503.039 689.9C 503.074 689.416 503.142 688.448 503.391 687.707C 503.639 686.966 504.067 686.451 504.673 686.159C 505.28 685.866 506.064 685.794 506.455 685.759C 506.847 685.723 506.847 685.723 506.847 685.723C 506.847 685.723 506.847 685.723 512.887 685.723C 518.928 685.723 531.008 685.723 537.048 685.723C 543.088 685.723 543.088 685.723 543.088 685.723C 543.088 685.723 543.088 685.723 543.624 685.723C 544.16 685.723 545.231 685.723 545.979 685.999C 546.727 686.275 547.151 686.827 547.258 687.655C 547.365 688.482 547.155 689.585 547.05 690.137C 546.945 690.688 546.945 690.688 546.872 691.344C 546.799 691.999 546.653 693.309 546.42 694.913C 546.187 696.517 545.868 698.414 545.46 700.603C 545.053 702.792 544.557 705.273 544.309 706.514C 544.06 707.755 544.06 707.755 544.06 707.823C 544.06 707.891 544.06 708.027 544.06 708.149C 544.06 708.27 544.06 708.377 544.06 708.463C 544.06 708.549 544.06 708.614 544.06 708.646C 544.06 708.679 544.06 708.679 544.06 708.679C 544.06 708.679 544.06 708.679 544.593 708.679C 545.126 708.679 546.192 708.679 546.725 708.679C 547.258 708.679 547.258 708.679 547.258 708.679C 547.258 708.679 547.258 708.679 547.865 708.715C 548.472 708.75 549.686 708.821 550.523 709.254C 551.36 709.687 551.821 710.482 551.91 711.636C 551.998 712.79 551.716 714.303 551.574 715.059C 551.433 715.815 551.433 715.815 551.148 717.195C 550.862 718.574 550.292 721.333 549.419 724.092C 548.545 726.85 547.37 729.608 545.89 732.367C 544.41 735.125 542.626 737.884 541.735 739.263C 540.843 740.643 540.843 740.643 541.306 741.093C 541.769 741.543 542.695 742.444 543.783 743.307C 544.871 744.17 546.12 744.996 547.529 745.788C 548.938 746.579 550.507 747.338 551.291 747.717C 552.076 748.096 552.076 748.096 552.395 748.337C 552.715 748.577 553.354 749.058 553.709 749.645C 554.065 750.232 554.137 750.926 553.922 751.72C 553.708 752.515 553.207 753.41 552.956 753.858C 552.705 754.306 552.705 754.306 552.457 754.65C 552.209 754.995 551.713 755.684 551.143 756.132C 550.573 756.58 549.929 756.786 549.217 756.751C 548.505 756.716 547.725 756.439 547.335 756.301C 546.945 756.162 546.945 756.162 546.375 755.853C 545.805 755.544 544.665 754.925 543.381 754.097C 542.097 753.269 540.668 752.232 539.099 750.989C 537.529 749.746 535.819 748.298 534.963 747.574C 534.108 746.85 534.108 746.85 533.111 747.644C 532.114 748.439 530.12 750.029 528.143 751.358C 526.166 752.687 524.206 753.756 522.263 754.565C 520.32 755.375 518.395 755.926 517.433 756.202C 516.47 756.477 516.47 756.477 515.864 756.614C 515.258 756.751 514.046 757.024 513.031 757.041C 512.016 757.059 511.198 756.82 510.574 756.321C 509.951 755.823 509.522 755.064 509.307 754.685C 509.092 754.306 509.092 754.306 508.949 753.858C 508.806 753.41 508.52 752.515 508.591 751.737C 508.662 750.96 509.091 750.302 509.875 749.765C 510.659 749.229 511.8 748.815 512.37 748.608C 512.94 748.401 512.94 748.401 514.046 748.058C 515.152 747.714 517.364 747.026 519.325 746.216C 521.287 745.406 522.998 744.473 524.458 743.422C 525.917 742.371 527.126 741.202 527.731 740.618C 528.335 740.033 528.335 740.033 527.587 738.998C 526.839 737.963 525.344 735.892 524.025 733.754C 522.707 731.615 521.565 729.409 520.603 727.134C 519.64 724.86 518.856 722.517 518.464 721.345C 518.073 720.173 518.073 720.173 517.753 722.205C 517.434 724.238 516.796 728.302 515.923 732.093C 515.05 735.883 513.941 739.401 512.605 742.643C 511.268 745.884 509.703 748.851 508.92 750.334C 508.138 751.817 508.138 751.817 507.531 752.713C 506.924 753.608 505.71 755.4 504.496 756.384C 503.283 757.368 502.07 757.545 500.859 756.907C 499.648 756.27 498.439 754.818 497.834 754.092C 497.23 753.366 497.23 753.366 497.194 753.746C 497.157 754.126 497.084 754.885 496.799 755.472C 496.514 756.058 496.016 756.472 495.304 756.714C 494.593 756.956 493.668 757.027 493.205 757.062C 492.742 757.097 492.742 757.097 492.277 757.062C 491.811 757.027 490.88 756.956 490.07 756.611C 489.259 756.265 488.57 755.644 488.57 753.366"/>
<path style="stroke:#008dbb; stroke-width:0.850394; stroke-linejoin:round; stroke-linecap:round; fill:#FFFFFF" d="M 540.528 717.38C 540.528 717.38 539.884 717.38 539.562 717.38C 539.24 717.38 539.24 717.38 539.24 717.38C 539.24 717.38 539.24 717.38 538.492 717.484C 537.744 717.588 536.247 717.796 535.251 717.503C 534.254 717.209 533.758 716.413 533.758 715.12C 533.758 713.826 534.254 712.035 534.502 711.139C 534.75 710.243 534.75 710.243 534.787 710C 534.824 709.758 534.898 709.272 534.969 708.77C 535.04 708.269 535.108 707.753 535.179 707.219C 535.25 706.685 535.324 706.134 535.361 705.859C 535.398 705.583 535.398 705.583 535.505 705.1C 535.611 704.617 535.824 703.651 536.02 702.687C 536.216 701.723 536.395 700.76 536.555 699.796C 536.714 698.831 536.855 697.865 536.925 697.381C 536.995 696.898 536.995 696.898 537.032 696.655C 537.068 696.413 537.141 695.928 537.104 695.565C 537.068 695.203 536.922 694.963 536.672 694.844C 536.421 694.724 536.066 694.724 535.888 694.724C 535.71 694.724 535.71 694.724 535.71 694.724C 535.71 694.724 535.71 694.724 533.199 694.724C 530.688 694.724 525.665 694.724 523.154 694.724C 520.643 694.724 520.643 694.724 520.643 694.724C 520.643 694.724 520.643 694.724 520.643 694.93C 520.643 695.135 520.643 695.547 520.625 695.96C 520.607 696.373 520.572 696.788 520.517 697.203C 520.462 697.618 520.389 698.034 520.352 698.242C 520.315 698.449 520.315 698.449 520.315 698.586C 520.315 698.723 520.315 698.996 520.315 699.272C 520.315 699.548 520.315 699.827 520.315 700.102C 520.315 700.377 520.315 700.649 520.315 700.785C 520.315 700.92 520.315 700.92 520.993 703.198C 521.67 705.476 523.026 710.031 524.487 714.136C 525.949 718.241 527.517 721.895 529.191 725.101C 530.865 728.307 532.645 731.064 533.535 732.443C 534.425 733.821 534.425 733.821 534.961 732.959C 535.497 732.096 536.569 730.371 537.497 728.663C 538.425 726.956 539.21 725.266 539.851 723.594C 540.492 721.921 540.99 720.266 541.239 719.439C 541.488 718.611 541.488 718.611 541.524 718.51C 541.56 718.409 541.632 718.207 541.586 717.999C 541.541 717.791 541.379 717.578 540.528 717.38"/>
<path style="stroke:#008dbb; stroke-width:0.850394; stroke-linejoin:round; stroke-linecap:round; fill:#008dbb" d="M 579.392 688.517C 579.392 688.517 588.854 688.517 593.586 688.517C 598.317 688.517 598.317 688.517 598.317 688.517C 598.317 688.517 598.317 688.517 598.673 688.552C 599.03 688.588 599.743 688.659 600.295 688.918C 600.847 689.176 601.239 689.623 601.472 690.26C 601.704 690.898 601.777 691.728 601.813 692.143C 601.85 692.557 601.85 692.557 601.813 693.005C 601.777 693.452 601.704 694.347 601.472 695.018C 601.239 695.688 600.847 696.134 600.295 696.357C 599.743 696.58 599.03 696.58 598.673 696.58C 598.317 696.58 598.317 696.58 598.317 696.58C 598.317 696.58 598.317 696.58 597.302 696.58C 596.287 696.58 594.257 696.58 593.242 696.58C 592.227 696.58 592.227 696.58 592.227 696.58C 592.227 696.58 592.227 696.58 592.227 696.823C 592.227 697.065 592.227 697.55 592.191 698.087C 592.154 698.623 592.081 699.21 591.975 699.848C 591.868 700.486 591.728 701.174 591.657 701.519C 591.587 701.863 591.587 701.863 591.587 701.863C 591.587 701.863 591.587 701.863 593.138 701.863C 594.689 701.863 597.79 701.863 599.341 701.863C 600.892 701.863 600.892 701.863 600.892 701.863C 600.892 701.863 600.892 701.863 601.177 701.863C 601.462 701.863 602.032 701.863 602.476 701.982C 602.92 702.101 603.24 702.338 603.435 702.701C 603.631 703.063 603.703 703.55 603.739 703.793C 603.775 704.037 603.775 704.037 603.775 704.037C 603.775 704.037 603.775 704.037 603.775 702.64C 603.775 701.243 603.775 698.449 603.775 697.053C 603.775 695.656 603.775 695.656 603.775 695.656C 603.775 695.656 603.775 695.656 603.739 694.932C 603.703 694.207 603.631 692.759 603.932 691.672C 604.234 690.586 604.91 689.861 605.962 689.499C 607.013 689.137 608.442 689.137 609.156 689.137C 609.87 689.137 609.87 689.137 609.87 689.137C 609.87 689.137 609.87 689.137 613.023 689.137C 616.177 689.137 622.485 689.137 625.639 689.137C 628.792 689.137 628.792 689.137 628.792 689.137C 628.792 689.137 628.792 689.137 629.541 689.101C 630.289 689.066 631.786 688.994 632.89 689.321C 633.994 689.648 634.706 690.373 635.026 691.495C 635.345 692.617 635.273 694.136 635.236 694.896C 635.2 695.656 635.2 695.656 635.2 695.656C 635.2 695.656 635.2 695.656 635.2 698.707C 635.2 701.759 635.2 707.861 635.2 710.913C 635.2 713.964 635.2 713.964 635.2 713.964C 635.2 713.964 635.2 713.964 635.236 714.825C 635.273 715.686 635.345 717.408 634.99 718.665C 634.634 719.923 633.85 720.716 632.639 721.044C 631.428 721.373 629.789 721.237 628.969 721.168C 628.15 721.1 628.15 721.1 628.15 721.1C 628.15 721.1 628.15 721.1 625.21 721.1C 622.271 721.1 616.391 721.1 613.452 721.1C 610.512 721.1 610.512 721.1 610.512 721.1C 610.512 721.1 610.512 721.1 609.691 721.168C 608.87 721.237 607.228 721.373 606.032 721.08C 604.837 720.786 604.089 720.063 603.787 718.909C 603.485 717.756 603.63 716.171 603.702 715.379C 603.775 714.586 603.775 714.586 603.775 714.586C 603.775 714.586 603.775 714.586 603.775 713.397C 603.775 712.207 603.775 709.829 603.775 708.639C 603.775 707.45 603.775 707.45 603.775 707.45C 603.775 707.45 603.775 707.45 603.702 707.759C 603.63 708.069 603.485 708.688 603.253 709.136C 603.021 709.584 602.702 709.862 602.294 709.965C 601.886 710.068 601.389 709.997 601.141 709.962C 600.892 709.926 600.892 709.926 600.892 709.926C 600.892 709.926 600.892 709.926 599.393 709.926C 597.895 709.926 594.897 709.926 593.398 709.926C 591.899 709.926 591.899 709.926 591.899 709.926C 591.899 709.926 591.899 709.926 592.436 710.341C 592.972 710.756 594.044 711.585 595.026 712.291C 596.007 712.997 596.896 713.58 597.697 714.045C 598.497 714.511 599.208 714.86 599.564 715.034C 599.919 715.208 599.919 715.208 600.419 715.552C 600.919 715.897 601.919 716.585 602.544 717.274C 603.168 717.962 603.418 718.651 603.292 719.339C 603.167 720.028 602.666 720.715 602.415 721.059C 602.164 721.403 602.164 721.403 601.845 721.955C 601.526 722.507 600.888 723.612 600.069 724.149C 599.25 724.685 598.25 724.654 597.073 724.051C 595.896 723.449 594.541 722.274 593.864 721.687C 593.187 721.1 593.187 721.1 592.617 720.756C 592.047 720.412 590.906 719.724 589.944 719.086C 588.981 718.448 588.197 717.861 587.592 717.324C 586.988 716.787 586.564 716.301 586.352 716.058C 586.139 715.815 586.139 715.815 585.284 716.679C 584.428 717.542 582.716 719.269 580.951 720.684C 579.186 722.098 577.368 723.201 575.496 723.992C 573.624 724.784 571.699 725.266 570.737 725.507C 569.774 725.748 569.774 725.748 569.204 725.955C 568.633 726.163 567.492 726.577 566.584 726.665C 565.676 726.754 565.001 726.515 564.557 725.945C 564.112 725.376 563.897 724.476 563.789 724.026C 563.682 723.576 563.682 723.576 563.467 723.164C 563.253 722.751 562.825 721.926 562.825 721.185C 562.825 720.443 563.253 719.786 564.109 719.217C 564.964 718.648 566.247 718.166 566.888 717.925C 567.529 717.685 567.529 717.685 568.35 717.444C 569.171 717.204 570.814 716.723 572.328 716.05C 573.842 715.377 575.228 714.512 576.491 713.459C 577.755 712.406 578.897 711.166 579.468 710.546C 580.039 709.926 580.039 709.926 580.039 709.926C 580.039 709.926 580.039 709.926 577.794 709.926C 575.549 709.926 571.059 709.926 568.814 709.926C 566.569 709.926 566.569 709.926 566.569 709.926C 566.569 709.926 566.569 709.926 566.177 709.926C 565.785 709.926 565.001 709.926 564.395 709.703C 563.789 709.481 563.361 709.035 563.112 708.362C 562.863 707.689 562.794 706.787 562.759 706.336C 562.724 705.885 562.724 705.885 562.795 705.473C 562.866 705.06 563.009 704.235 563.31 703.597C 563.61 702.96 564.07 702.51 564.693 702.253C 565.315 701.995 566.101 701.929 566.494 701.896C 566.887 701.863 566.887 701.863 566.494 701.69C 566.101 701.518 565.315 701.174 564.799 700.69C 564.284 700.206 564.037 699.583 564.056 698.824C 564.074 698.065 564.358 697.17 564.5 696.723C 564.642 696.276 564.642 696.276 564.786 696.035C 564.929 695.795 565.217 695.314 565.753 694.486C 566.289 693.659 567.073 692.485 568.106 690.966C 569.138 689.448 570.42 687.586 571.061 686.655C 571.702 685.723 571.702 685.723 571.987 685.344C 572.272 684.964 572.843 684.205 573.466 683.722C 574.089 683.239 574.765 683.032 575.494 683.101C 576.224 683.169 577.008 683.513 577.4 683.685C 577.792 683.857 577.792 683.857 578.113 684.099C 578.434 684.341 579.077 684.825 579.532 685.455C 579.987 686.085 580.255 686.861 579.392 688.517"/>
<path style="stroke:#008dbb; stroke-width:0.850394; stroke-linejoin:round; stroke-linecap:round; fill:#FFFFFF" d="M 570.102 701.863C 570.102 701.863 576.513 701.863 579.719 701.863C 582.924 701.863 582.924 701.863 582.924 701.863C 582.924 701.863 582.924 701.863 582.924 701.863C 582.924 701.863 582.924 701.863 582.924 701.827C 582.924 701.792 582.924 701.72 582.924 701.617C 582.924 701.513 582.924 701.377 582.924 701.309C 582.924 701.24 582.924 701.24 582.961 701.033C 582.997 700.826 583.07 700.411 583.141 699.946C 583.211 699.481 583.28 698.965 583.35 698.396C 583.42 697.826 583.492 697.203 583.528 696.892C 583.564 696.58 583.564 696.58 583.564 696.58C 583.564 696.58 583.564 696.58 582.068 696.58C 580.573 696.58 577.581 696.58 576.085 696.58C 574.589 696.58 574.589 696.58 574.589 696.58C 574.589 696.58 574.589 696.58 574.234 697.099C 573.878 697.617 573.167 698.654 572.435 699.613C 571.703 700.571 570.95 701.451 570.102 701.863"/>
<path style="stroke:#008dbb; stroke-width:0.850394; stroke-linejoin:round; stroke-linecap:round; fill:#FFFFFF" d="M 615.315 712.717C 615.315 712.717 619.487 712.717 621.574 712.717C 623.66 712.717 623.66 712.717 623.66 712.717C 623.66 712.717 623.66 712.717 623.909 712.753C 624.158 712.788 624.657 712.859 625.05 712.756C 625.443 712.653 625.73 712.375 625.907 711.927C 626.084 711.479 626.152 710.861 626.186 710.552C 626.22 710.243 626.22 710.243 626.22 710.243C 626.22 710.243 626.22 710.243 626.22 708.485C 626.22 706.726 626.22 703.209 626.22 701.45C 626.22 699.691 626.22 699.691 626.22 699.691C 626.22 699.691 626.22 699.691 626.22 699.449C 626.22 699.206 626.22 698.721 626.079 698.341C 625.938 697.962 625.656 697.688 625.229 697.515C 624.803 697.343 624.231 697.273 623.946 697.238C 623.66 697.202 623.66 697.202 623.66 697.202C 623.66 697.202 623.66 697.202 622.324 697.202C 620.988 697.202 618.316 697.202 616.981 697.202C 615.645 697.202 615.645 697.202 615.645 697.202C 615.645 697.202 615.645 697.202 615.359 697.238C 615.073 697.273 614.502 697.343 614.073 697.515C 613.644 697.688 613.358 697.962 613.215 698.341C 613.072 698.721 613.072 699.206 613.072 699.449C 613.072 699.691 613.072 699.691 613.072 699.691C 613.072 699.691 613.072 699.691 613.072 701.45C 613.072 703.209 613.072 706.726 613.072 708.485C 613.072 710.243 613.072 710.243 613.072 710.243C 613.072 710.243 613.072 710.243 613.037 710.552C 613.003 710.861 612.933 711.479 613.084 711.997C 613.235 712.514 613.605 712.93 615.315 712.717"/>
<path style="stroke:#008dbb; stroke-width:0.850394; stroke-linejoin:round; stroke-linecap:round; fill:#008dbb" d="M 570.102 748.401C 570.102 748.401 570.102 739.557 570.102 735.135C 570.102 730.713 570.102 730.713 570.102 730.713C 570.102 730.713 570.102 730.713 570.065 729.989C 570.028 729.265 569.954 727.818 570.239 726.732C 570.524 725.645 571.168 724.921 572.167 724.558C 573.167 724.196 574.523 724.196 575.201 724.196C 575.879 724.196 575.879 724.196 575.879 724.196C 575.879 724.196 575.879 724.196 583.629 724.196C 591.379 724.196 606.878 724.196 614.628 724.196C 622.377 724.196 622.377 724.196 622.377 724.196C 622.377 724.196 622.377 724.196 623.232 724.164C 624.087 724.131 625.797 724.066 627.063 724.412C 628.328 724.759 629.15 725.518 629.524 726.689C 629.898 727.861 629.825 729.445 629.789 730.238C 629.752 731.03 629.752 731.03 629.752 731.03C 629.752 731.03 629.752 731.03 629.752 733.875C 629.752 736.719 629.752 742.408 629.752 745.252C 629.752 748.096 629.752 748.096 629.752 748.096C 629.752 748.096 629.752 748.096 629.789 748.924C 629.825 749.751 629.898 751.406 629.542 752.631C 629.186 753.855 628.401 754.65 627.188 755.011C 625.974 755.372 624.332 755.301 623.511 755.266C 622.69 755.23 622.69 755.23 622.69 755.23C 622.69 755.23 622.69 755.23 614.94 755.23C 607.19 755.23 591.689 755.23 583.939 755.23C 576.189 755.23 576.189 755.23 576.189 755.23C 576.189 755.23 576.189 755.23 575.405 755.299C 574.621 755.368 573.052 755.506 571.761 755.006C 570.47 754.505 569.457 753.366 570.102 748.401"/>
<path style="stroke:#008dbb; stroke-width:0.850394; stroke-linejoin:round; stroke-linecap:round; fill:#FFFFFF" d="M 579.719 733.821C 579.719 733.821 579.719 734.907 579.719 735.45C 579.719 735.993 579.719 735.993 579.719 735.993C 579.719 735.993 579.719 735.993 579.719 735.993C 579.719 735.993 579.719 735.993 586.455 735.993C 593.19 735.993 606.661 735.993 613.397 735.993C 620.132 735.993 620.132 735.993 620.132 735.993C 620.132 735.993 620.132 735.993 620.132 735.993C 620.132 735.993 620.132 735.993 620.132 735.631C 620.132 735.269 620.132 734.545 620.132 734.183C 620.132 733.821 620.132 733.821 620.132 733.821C 620.132 733.821 620.132 733.821 620.096 733.683C 620.06 733.544 619.987 733.268 619.861 733.043C 619.735 732.818 619.557 732.645 619.326 732.526C 619.096 732.407 618.814 732.341 618.673 732.308C 618.532 732.275 618.532 732.275 618.532 732.275C 618.532 732.275 618.532 732.275 612.278 732.275C 606.023 732.275 593.514 732.275 587.259 732.275C 581.004 732.275 581.004 732.275 581.004 732.275C 581.004 732.275 581.004 732.275 580.824 732.275C 580.645 732.275 580.285 732.275 580 732.404C 579.714 732.532 579.503 732.79 579.719 733.821"/>
<path style="stroke:#008dbb; stroke-width:0.850394; stroke-linejoin:round; stroke-linecap:round; fill:#FFFFFF" d="M 620.132 745.925C 620.132 745.925 620.132 744.838 620.132 744.295C 620.132 743.751 620.132 743.751 620.132 743.751C 620.132 743.751 620.132 743.751 620.132 743.751C 620.132 743.751 620.132 743.751 613.342 743.751C 606.552 743.751 592.972 743.751 586.182 743.751C 579.392 743.751 579.392 743.751 579.392 743.751C 579.392 743.751 579.392 743.751 579.392 743.751C 579.392 743.751 579.392 743.751 579.392 744.164C 579.392 744.577 579.392 745.404 579.392 745.817C 579.392 746.23 579.392 746.23 579.392 746.23C 579.392 746.23 579.392 746.23 579.357 746.402C 579.323 746.574 579.255 746.919 579.291 747.161C 579.328 747.404 579.47 747.545 579.719 747.58C 579.968 747.615 580.324 747.545 580.501 747.509C 580.679 747.474 580.679 747.474 580.679 747.474C 580.679 747.474 580.679 747.474 587.04 747.474C 593.401 747.474 606.123 747.474 612.484 747.474C 618.845 747.474 618.845 747.474 618.845 747.474C 618.845 747.474 618.845 747.474 618.989 747.509C 619.133 747.545 619.42 747.615 619.67 747.521C 619.92 747.427 620.132 747.17 620.132 745.925"/>
<path style="stroke:#008dbb; stroke-width:0.850394; stroke-linejoin:round; stroke-linecap:round; fill:#008dbb" d="M 658.039 693.787C 658.039 693.787 670.389 693.787 676.564 693.787C 682.739 693.787 682.739 693.787 682.739 693.787C 682.739 693.787 682.739 693.787 682.739 693.787C 682.739 693.787 682.739 693.787 682.739 692.547C 682.739 691.306 682.739 688.826 682.739 687.586C 682.739 686.346 682.739 686.346 682.739 686.346C 682.739 686.346 682.739 686.346 682.739 686.001C 682.739 685.657 682.739 684.969 682.988 684.435C 683.237 683.902 683.735 683.522 684.483 683.297C 685.231 683.072 686.23 683.001 686.73 682.965C 687.229 682.93 687.229 682.93 687.692 682.998C 688.155 683.066 689.081 683.202 689.792 683.478C 690.504 683.754 691 684.17 691.284 684.721C 691.569 685.273 691.643 685.96 691.68 686.304C 691.717 686.648 691.717 686.648 691.717 686.648C 691.717 686.648 691.717 686.648 691.717 687.838C 691.717 689.027 691.717 691.407 691.717 692.597C 691.717 693.787 691.717 693.787 691.717 693.787C 691.717 693.787 691.717 693.787 691.717 693.787C 691.717 693.787 691.717 693.787 695.886 693.787C 700.055 693.787 708.393 693.787 712.563 693.787C 716.732 693.787 716.732 693.787 716.732 693.787C 716.732 693.787 716.732 693.787 717.124 693.822C 717.517 693.858 718.301 693.929 718.908 694.205C 719.514 694.481 719.943 694.962 720.191 695.652C 720.439 696.342 720.507 697.242 720.54 697.692C 720.574 698.142 720.574 698.142 720.54 698.623C 720.507 699.105 720.439 700.067 720.191 700.791C 719.943 701.515 719.514 702 718.908 702.242C 718.301 702.485 717.517 702.485 717.124 702.485C 716.732 702.485 716.732 702.485 716.732 702.485C 716.732 702.485 716.732 702.485 712.563 702.485C 708.393 702.485 700.055 702.485 695.886 702.485C 691.717 702.485 691.717 702.485 691.717 702.485C 691.717 702.485 691.717 702.485 691.717 702.485C 691.717 702.485 691.717 702.485 691.717 704.036C 691.717 705.587 691.717 708.69 691.717 710.241C 691.717 711.793 691.717 711.793 691.717 711.793C 691.717 711.793 691.717 711.793 691.717 711.793C 691.717 711.793 691.717 711.793 696.581 711.793C 701.446 711.793 711.175 711.793 716.04 711.793C 720.904 711.793 720.904 711.793 720.904 711.793C 720.904 711.793 720.904 711.793 721.26 711.826C 721.616 711.859 722.327 711.925 722.897 712.201C 723.468 712.477 723.898 712.963 724.183 713.653C 724.468 714.343 724.609 715.238 724.679 715.685C 724.749 716.133 724.749 716.133 724.715 716.617C 724.681 717.1 724.612 718.068 724.382 718.792C 724.152 719.516 723.76 719.997 723.206 720.238C 722.652 720.478 721.936 720.478 721.577 720.478C 721.219 720.478 721.219 720.478 721.219 720.478C 721.219 720.478 721.219 720.478 717.212 720.478C 713.205 720.478 705.191 720.478 701.184 720.478C 697.177 720.478 697.177 720.478 697.177 720.478C 697.177 720.478 697.177 720.478 698.28 722.202C 699.384 723.925 701.591 727.372 704.101 730.442C 706.612 733.511 709.427 736.203 712.545 738.514C 715.663 740.825 719.084 742.754 720.794 743.719C 722.504 744.683 722.504 744.683 722.827 744.959C 723.149 745.235 723.793 745.787 724.167 746.373C 724.541 746.96 724.645 747.58 724.483 748.235C 724.32 748.891 723.891 749.58 723.676 749.925C 723.462 750.27 723.462 750.27 723.214 750.65C 722.966 751.029 722.47 751.787 721.9 752.253C 721.331 752.718 720.689 752.89 719.977 752.768C 719.266 752.647 718.485 752.232 718.095 752.024C 717.705 751.817 717.705 751.817 715.813 750.818C 713.922 749.818 710.14 747.82 706.808 745.544C 703.476 743.269 700.594 740.716 698.154 737.889C 695.714 735.062 693.715 731.961 692.716 730.41C 691.717 728.859 691.717 728.859 691.717 728.859C 691.717 728.859 691.717 728.859 691.717 733.1C 691.717 737.341 691.717 745.823 691.717 750.065C 691.717 754.306 691.717 754.306 691.717 754.306C 691.717 754.306 691.717 754.306 691.217 755.03C 690.717 755.753 689.717 757.201 688.72 757.925C 687.723 758.649 686.73 758.649 685.733 757.925C 684.737 757.201 683.738 755.753 683.238 755.03C 682.739 754.306 682.739 754.306 682.739 754.306C 682.739 754.306 682.739 754.306 682.739 750.169C 682.739 746.032 682.739 737.758 682.739 733.621C 682.739 729.484 682.739 729.484 682.739 729.484C 682.739 729.484 682.739 729.484 681.562 731.139C 680.386 732.794 678.032 736.104 675.412 738.998C 672.791 741.892 669.904 744.371 666.75 746.438C 663.595 748.505 660.175 750.161 658.464 750.989C 656.754 751.817 656.754 751.817 656.291 751.989C 655.828 752.161 654.901 752.504 654.083 752.557C 653.264 752.609 652.553 752.371 651.948 751.836C 651.343 751.302 650.845 750.473 650.595 750.058C 650.346 749.643 650.346 749.643 650.203 749.299C 650.06 748.956 649.774 748.268 649.79 747.613C 649.806 746.958 650.124 746.335 650.749 745.747C 651.373 745.16 652.303 744.608 652.769 744.332C 653.234 744.056 653.234 744.056 655.015 743.024C 656.797 741.991 660.36 739.927 663.512 737.583C 666.665 735.24 669.407 732.618 671.74 729.721C 674.072 726.824 675.995 723.651 676.957 722.065C 677.919 720.478 677.919 720.478 677.919 720.478C 677.919 720.478 677.919 720.478 673.698 720.478C 669.477 720.478 661.035 720.478 656.815 720.478C 652.594 720.478 652.594 720.478 652.594 720.478C 652.594 720.478 652.594 720.478 651.88 719.995C 651.166 719.511 649.738 718.545 649.041 717.58C 648.345 716.615 648.38 715.653 649.147 714.689C 649.913 713.724 651.409 712.758 652.158 712.276C 652.906 711.793 652.906 711.793 652.906 711.793C 652.906 711.793 652.906 711.793 657.878 711.793C 662.85 711.793 672.795 711.793 677.767 711.793C 682.739 711.793 682.739 711.793 682.739 711.793C 682.739 711.793 682.739 711.793 682.739 711.793C 682.739 711.793 682.739 711.793 682.739 710.241C 682.739 708.69 682.739 705.587 682.739 704.036C 682.739 702.485 682.739 702.485 682.739 702.485C 682.739 702.485 682.739 702.485 682.739 702.485C 682.739 702.485 682.739 702.485 678.57 702.485C 674.401 702.485 666.064 702.485 661.895 702.485C 657.726 702.485 657.726 702.485 657.726 702.485C 657.726 702.485 657.726 702.485 657.297 702.485C 656.867 702.485 656.008 702.485 655.364 702.242C 654.72 702 654.292 701.515 654.078 700.791C 653.864 700.067 653.864 699.105 653.864 698.623C 653.864 698.142 653.864 698.142 653.9 697.692C 653.937 697.242 654.011 696.342 654.396 695.532C 654.782 694.721 655.479 694 658.039 693.787"/>
<path style="stroke:#008dbb; stroke-width:0.850394; stroke-linejoin:round; stroke-linecap:round; fill:#008dbb" d="M 741.173 689.441C 741.173 689.441 754.003 689.441 760.418 689.441C 766.833 689.441 766.833 689.441 766.833 689.441C 766.833 689.441 766.833 689.441 766.833 689.441C 766.833 689.441 766.833 689.441 766.833 688.872C 766.833 688.304 766.833 687.166 766.833 686.597C 766.833 686.028 766.833 686.028 766.833 686.028C 766.833 686.028 766.833 686.028 766.833 685.684C 766.833 685.34 766.833 684.652 767.082 684.118C 767.33 683.584 767.827 683.205 768.575 682.982C 769.323 682.759 770.322 682.692 770.822 682.658C 771.321 682.625 771.321 682.625 771.784 682.694C 772.247 682.762 773.173 682.899 773.887 683.175C 774.6 683.451 775.102 683.866 775.387 684.418C 775.671 684.969 775.74 685.657 775.774 686.001C 775.809 686.346 775.809 686.346 775.809 686.346C 775.809 686.346 775.809 686.346 775.809 686.862C 775.809 687.378 775.809 688.409 775.809 688.925C 775.809 689.441 775.809 689.441 775.809 689.441C 775.809 689.441 775.809 689.441 775.809 689.441C 775.809 689.441 775.809 689.441 780.085 689.441C 784.361 689.441 792.914 689.441 797.19 689.441C 801.466 689.441 801.466 689.441 801.466 689.441C 801.466 689.441 801.466 689.441 801.895 689.477C 802.324 689.513 803.181 689.584 803.841 689.86C 804.5 690.136 804.962 690.616 805.228 691.305C 805.495 691.994 805.567 692.89 805.603 693.338C 805.639 693.787 805.639 693.787 805.639 694.27C 805.639 694.753 805.639 695.719 805.443 696.444C 805.248 697.17 804.857 697.656 804.269 697.899C 803.681 698.142 802.896 698.142 802.504 698.142C 802.111 698.142 802.111 698.142 802.111 698.142C 802.111 698.142 802.111 698.142 797.728 698.142C 793.344 698.142 784.576 698.142 780.192 698.142C 775.809 698.142 775.809 698.142 775.809 698.142C 775.809 698.142 775.809 698.142 775.809 698.142C 775.809 698.142 775.809 698.142 775.809 701.141C 775.809 704.139 775.809 710.136 775.809 713.134C 775.809 716.133 775.809 716.133 775.809 716.133C 775.809 716.133 775.809 716.133 775.809 716.133C 775.809 716.133 775.809 716.133 777.252 716.133C 778.696 716.133 781.584 716.133 783.027 716.133C 784.471 716.133 784.471 716.133 784.471 716.133C 784.471 716.133 784.471 716.133 784.615 715.685C 784.758 715.238 785.045 714.343 785.349 713.448C 785.652 712.552 785.972 711.655 786.31 710.759C 786.648 709.863 787.003 708.968 787.181 708.52C 787.359 708.072 787.359 708.072 787.502 707.725C 787.646 707.379 787.933 706.685 788.181 706.098C 788.43 705.511 788.64 705.03 788.818 704.652C 788.996 704.273 789.142 703.996 789.216 703.858C 789.289 703.719 789.289 703.719 789.43 703.306C 789.572 702.893 789.854 702.067 790.317 701.481C 790.78 700.896 791.424 700.551 792.245 700.447C 793.066 700.343 794.065 700.479 794.565 700.548C 795.064 700.616 795.064 700.616 795.49 700.755C 795.916 700.894 796.769 701.173 797.355 701.604C 797.94 702.035 798.26 702.618 798.315 703.357C 798.37 704.096 798.161 704.991 798.056 705.438C 797.951 705.885 797.951 705.885 797.878 706.06C 797.805 706.234 797.659 706.583 797.515 706.947C 797.371 707.312 797.229 707.692 797.088 708.088C 796.948 708.483 796.807 708.895 796.737 709.101C 796.666 709.306 796.666 709.306 796.451 709.893C 796.236 710.479 795.806 711.651 795.45 712.617C 795.094 713.583 794.812 714.342 794.598 714.894C 794.383 715.445 794.236 715.789 794.162 715.961C 794.089 716.133 794.089 716.133 794.089 716.133C 794.089 716.133 794.089 716.133 796.067 716.133C 798.045 716.133 802 716.133 803.978 716.133C 805.956 716.133 805.956 716.133 805.956 716.133C 805.956 716.133 805.956 716.133 806.314 716.168C 806.672 716.204 807.387 716.275 807.941 716.569C 808.495 716.863 808.888 717.379 809.119 718.119C 809.35 718.859 809.42 719.822 809.454 720.304C 809.489 720.785 809.489 720.785 809.418 721.235C 809.347 721.685 809.205 722.585 808.919 723.258C 808.633 723.93 808.204 724.376 807.633 724.598C 807.063 724.821 806.351 724.821 805.995 724.821C 805.639 724.821 805.639 724.821 805.639 724.821C 805.639 724.821 805.639 724.821 801.63 724.821C 797.62 724.821 789.602 724.821 785.593 724.821C 781.584 724.821 781.584 724.821 781.584 724.821C 781.584 724.821 781.584 724.821 782.724 726.339C 783.864 727.857 786.145 730.892 788.676 733.547C 791.208 736.202 793.99 738.476 797.019 740.371C 800.048 742.266 803.324 743.783 804.961 744.542C 806.599 745.3 806.599 745.3 806.991 745.541C 807.383 745.782 808.167 746.264 808.648 746.816C 809.13 747.368 809.31 747.992 809.187 748.682C 809.064 749.373 808.639 750.132 808.427 750.511C 808.214 750.89 808.214 750.89 807.964 751.303C 807.713 751.715 807.212 752.541 806.623 753.075C 806.035 753.608 805.359 753.85 804.593 753.8C 803.826 753.749 802.969 753.405 802.54 753.233C 802.111 753.061 802.111 753.061 800.544 752.371C 798.977 751.68 795.842 750.298 792.813 748.418C 789.784 746.538 786.861 744.159 784.045 741.282C 781.228 738.404 778.518 735.028 777.163 733.34C 775.809 731.652 775.809 731.652 775.809 731.652C 775.809 731.652 775.809 731.652 775.809 735.271C 775.809 738.89 775.809 746.128 775.809 749.747C 775.809 753.366 775.809 753.366 775.809 753.366C 775.809 753.366 775.809 753.366 775.774 753.746C 775.74 754.126 775.671 754.885 775.387 755.454C 775.102 756.023 774.6 756.401 773.887 756.59C 773.173 756.779 772.247 756.779 771.784 756.779C 771.321 756.779 771.321 756.779 770.822 756.746C 770.322 756.713 769.323 756.647 768.575 756.407C 767.827 756.167 767.33 755.752 767.082 755.165C 766.833 754.578 766.833 753.82 766.833 753.441C 766.833 753.061 766.833 753.061 766.833 753.061C 766.833 753.061 766.833 753.061 766.833 749.44C 766.833 745.818 766.833 738.575 766.833 734.954C 766.833 731.332 766.833 731.332 766.833 731.332C 766.833 731.332 766.833 731.332 765.836 732.851C 764.839 734.369 762.845 737.406 760.475 740.114C 758.105 742.822 755.359 745.201 752.24 747.254C 749.12 749.307 745.625 751.033 743.878 751.896C 742.131 752.759 742.131 752.759 741.634 753C 741.137 753.24 740.143 753.721 739.235 753.908C 738.328 754.096 737.507 753.99 736.775 753.593C 736.042 753.195 735.399 752.506 735.077 752.162C 734.756 751.817 734.756 751.817 734.471 751.404C 734.186 750.991 733.616 750.165 733.438 749.423C 733.261 748.681 733.475 748.025 734.081 747.456C 734.688 746.887 735.687 746.406 736.186 746.166C 736.686 745.925 736.686 745.925 738.36 745.133C 740.035 744.34 743.384 742.756 746.43 740.79C 749.477 738.823 752.221 736.476 754.664 733.751C 757.106 731.026 759.246 727.923 760.316 726.372C 761.386 724.821 761.386 724.821 761.386 724.821C 761.386 724.821 761.386 724.821 757.483 724.821C 753.58 724.821 745.774 724.821 741.871 724.821C 737.968 724.821 737.968 724.821 737.968 724.821C 737.968 724.821 737.968 724.821 737.576 724.821C 737.184 724.821 736.4 724.821 735.776 724.598C 735.153 724.376 734.689 723.93 734.386 723.258C 734.083 722.585 733.94 721.685 733.869 721.235C 733.798 720.785 733.798 720.785 733.834 720.304C 733.871 719.822 733.944 718.859 734.192 718.119C 734.441 717.379 734.865 716.863 735.469 716.569C 736.074 716.275 736.858 716.204 737.251 716.168C 737.643 716.133 737.643 716.133 737.643 716.133C 737.643 716.133 737.643 716.133 739.675 716.133C 741.707 716.133 745.772 716.133 747.804 716.133C 749.836 716.133 749.836 716.133 749.836 716.133C 749.836 716.133 749.836 716.133 749.8 716.133C 749.764 716.133 749.692 716.133 749.621 716.115C 749.551 716.098 749.481 716.063 749.41 716.01C 749.339 715.958 749.266 715.886 749.23 715.851C 749.193 715.815 749.193 715.815 749.156 715.747C 749.12 715.679 749.046 715.543 748.994 715.406C 748.941 715.27 748.91 715.134 748.894 714.997C 748.878 714.86 748.878 714.723 748.878 714.655C 748.878 714.586 748.878 714.586 748.878 714.586C 748.878 714.586 748.878 714.586 748.29 713.24C 747.701 711.894 746.523 709.202 745.935 707.856C 745.346 706.51 745.346 706.51 745.346 706.51C 745.346 706.51 745.346 706.51 745.168 706.098C 744.99 705.686 744.635 704.861 744.58 704.155C 744.525 703.448 744.772 702.86 745.324 702.394C 745.876 701.928 746.733 701.584 747.162 701.412C 747.591 701.24 747.591 701.24 748.017 701.101C 748.443 700.962 749.296 700.683 750.062 700.666C 750.829 700.648 751.509 700.891 752.099 701.392C 752.688 701.892 753.186 702.651 753.434 703.03C 753.683 703.409 753.683 703.409 753.79 703.685C 753.897 703.961 754.11 704.513 754.376 705.169C 754.642 705.824 754.962 706.584 755.336 707.447C 755.711 708.31 756.141 709.277 756.356 709.76C 756.571 710.243 756.571 710.243 756.607 710.381C 756.643 710.518 756.715 710.792 756.786 711.015C 756.856 711.238 756.926 711.41 756.996 711.531C 757.067 711.652 757.139 711.722 757.175 711.757C 757.211 711.793 757.211 711.793 757.352 712.137C 757.494 712.482 757.776 713.171 757.936 713.756C 758.096 714.341 758.132 714.822 758.043 715.2C 757.954 715.579 757.74 715.856 757.633 715.994C 757.526 716.133 757.526 716.133 757.526 716.133C 757.526 716.133 757.526 716.133 759.077 716.133C 760.628 716.133 763.731 716.133 765.282 716.133C 766.833 716.133 766.833 716.133 766.833 716.133C 766.833 716.133 766.833 716.133 766.833 716.133C 766.833 716.133 766.833 716.133 766.833 713.134C 766.833 710.136 766.833 704.139 766.833 701.141C 766.833 698.142 766.833 698.142 766.833 698.142C 766.833 698.142 766.833 698.142 766.833 698.142C 766.833 698.142 766.833 698.142 762.504 698.142C 758.175 698.142 749.517 698.142 745.188 698.142C 740.858 698.142 740.858 698.142 740.858 698.142C 740.858 698.142 740.858 698.142 740.466 698.142C 740.074 698.142 739.289 698.142 738.682 697.899C 738.075 697.656 737.646 697.17 737.395 696.444C 737.145 695.719 737.073 694.753 737.037 694.27C 737.001 693.787 737.001 693.787 737.073 693.338C 737.145 692.89 737.29 691.994 737.709 691.185C 738.128 690.376 738.821 689.655 741.173 689.441"/>
<path style="stroke:#008dbb; stroke-width:0.850394; stroke-linejoin:round; stroke-linecap:round; fill:#008dbb" d="M 419.997 768.886C 592.425 768.886 668.847 783.26 722.847 797.823C 776.846 812.386 808.423 827.138 824.212 834.514C 840 841.89 840 841.89 821.749 836.846C 803.498 831.803 766.996 821.717 724.107 812.443C 681.218 803.17 631.942 794.71 580.192 790.479C 528.443 786.249 474.22 786.249 447.109 786.249C 419.997 786.249 419.997 786.249 392.887 786.249C 365.777 786.249 311.556 786.249 259.807 790.479C 208.058 794.71 158.782 803.17 115.893 812.443C 73.0039 821.717 36.502 831.803 18.251 836.846C 0 841.89 0 841.89 15.7884 834.514C 31.5768 827.138 63.1536 812.386 117.153 797.823C 171.153 783.26 247.575 768.886 419.997 768.886"/>
</g>
</svg>