<?xml version="1.0" encoding="UTF-8" standalone="yes"?>
<!-- Created with sK1/UniConvertor (http://sk1project.org/) -->
<svg xmlns="http://www.w3.org/2000/svg" xmlns:xlink="http://www.w3.org/1999/xlink"
  viewBox="0 682 824 160"
  fill-rule="evenodd">
<g>
<path style="stroke:#000000; stroke-width:0.850394; stroke-linejoin:round; stroke-linecap:round; fill:#000000" d="M 388.887 689.977C 388.887 685.952 390.518 684.322 392.003 683.506C 393.489 682.691 394.83 682.691 395.5 682.691C 396.171 682.691 396.171 682.691 396.841 682.691C 397.512 682.691 398.853 682.691 400.067 683.235C 401.281 683.778 402.369 684.865 402.913 686.079C 403.457 687.294 403.457 688.635 403.457 689.306C 403.457 689.977 403.457 689.977 403.457 689.977C 403.457 689.977 403.457 689.977 403.457 697.509C 403.457 705.041 403.457 720.104 403.457 727.636C 403.457 735.167 403.457 735.167 403.457 735.167C 403.457 735.167 403.457 735.167 403.457 735.167C 403.457 735.167 403.457 735.167 403.452 735.182C 403.447 735.196 403.437 735.225 403.432 735.239C 403.426 735.254 403.426 735.254 403.426 735.254C 403.426 735.254 403.426 735.254 403.426 735.257C 403.426 735.26 403.426 735.266 403.398 736.307C 403.369 737.348 403.311 739.425 404.444 740.536C 405.576 741.648 407.898 741.796 409.059 741.869C 410.22 741.943 410.22 741.943 410.22 741.943C 410.22 741.943 410.22 741.943 410.22 741.941C 410.22 741.939 410.22 741.935 410.22 741.932C 410.22 741.93 410.22 741.93 410.22 741.93C 410.22 741.93 410.22 741.93 410.22 741.93C 410.22 741.93 410.22 741.93 415.474 741.93C 420.727 741.93 431.234 741.93 436.488 741.93C 441.742 741.93 441.742 741.93 441.742 741.93C 441.742 741.93 441.742 741.93 442.413 741.93C 443.083 741.93 444.425 741.93 445.64 742.474C 446.854 743.018 447.941 744.106 448.484 745.32C 449.028 746.535 449.028 747.876 449.028 748.546C 449.028 749.216 449.028 749.216 449.028 749.887C 449.028 750.558 449.028 751.9 448.484 753.115C 447.941 754.33 446.854 755.417 445.64 755.961C 444.425 756.505 443.083 756.505 442.413 756.505C 441.742 756.505 441.742 756.505 441.742 756.505C 441.742 756.505 441.742 756.505 436.488 756.505C 431.234 756.505 420.727 756.505 415.474 756.505C 410.22 756.505 410.22 756.505 410.22 756.505C 410.22 756.505 410.22 756.505 410.22 756.505C 410.22 756.505 410.22 756.505 410.173 756.5C 410.125 756.495 410.03 756.485 409.983 756.48C 409.935 756.475 409.935 756.475 409.935 756.475C 409.935 756.475 409.935 756.475 406.465 756.338C 402.995 756.201 396.054 755.928 392.548 752.612C 389.043 749.296 388.973 742.938 388.939 739.523C 388.906 736.109 388.909 735.638 388.911 735.403C 388.912 735.167 388.912 735.167 388.912 735.167C 388.912 735.167 388.912 735.167 388.908 735.167C 388.904 735.167 388.896 735.167 388.891 735.167C 388.887 735.167 388.887 735.167 388.887 735.167C 388.887 735.167 388.887 735.167 388.887 735.167C 388.887 735.167 388.887 735.167 388.887 723.87C 388.887 712.572 388.887 689.977 388.887 689.977"/>
<path style="stroke:#000000; stroke-width:0.850394; stroke-linejoin:round; stroke-linecap:round; fill:#000000" d="M 303.622 689.977C 303.622 685.952 305.252 684.322 306.739 683.506C 308.226 682.691 309.57 682.691 310.241 682.691C 310.913 682.691 310.913 682.691 311.584 682.691C 312.254 682.691 313.595 682.691 314.809 683.235C 316.023 683.778 317.11 684.865 317.653 686.079C 318.197 687.294 318.197 688.635 318.197 689.306C 318.197 689.977 318.197 689.977 318.197 689.977C 318.197 689.977 318.197 689.977 318.197 697.509C 318.197 705.041 318.197 720.104 318.197 727.636C 318.197 735.167 318.197 735.167 318.197 735.167C 318.197 735.167 318.197 735.167 318.197 735.167C 318.197 735.167 318.197 735.167 318.193 735.182C 318.188 735.196 318.18 735.225 318.176 735.239C 318.171 735.254 318.171 735.254 318.171 735.254C 318.171 735.254 318.171 735.254 318.171 735.257C 318.171 735.26 318.171 735.266 318.141 736.307C 318.111 737.348 318.051 739.425 319.182 740.536C 320.313 741.648 322.635 741.796 323.796 741.869C 324.957 741.943 324.957 741.943 324.957 741.943C 324.957 741.943 324.957 741.943 324.957 741.941C 324.957 741.939 324.957 741.935 324.957 741.932C 324.957 741.93 324.957 741.93 324.957 741.93C 324.957 741.93 324.957 741.93 324.957 741.93C 324.957 741.93 324.957 741.93 333.09 741.93C 341.222 741.93 357.486 741.93 365.619 741.93C 373.751 741.93 373.751 741.93 373.751 741.93C 373.751 741.93 373.751 741.93 374.421 741.93C 375.092 741.93 376.433 741.93 377.647 742.474C 378.862 743.018 379.949 744.106 380.493 745.32C 381.037 746.535 381.037 747.876 381.037 748.546C 381.037 749.216 381.037 749.216 381.037 749.887C 381.037 750.558 381.037 751.9 380.493 753.115C 379.949 754.33 378.862 755.417 377.647 755.961C 376.433 756.505 375.092 756.505 374.421 756.505C 373.751 756.505 373.751 756.505 373.751 756.505C 373.751 756.505 373.751 756.505 365.619 756.505C 357.486 756.505 341.222 756.505 333.09 756.505C 324.957 756.505 324.957 756.505 324.957 756.505C 324.957 756.505 324.957 756.505 324.957 756.505C 324.957 756.505 324.957 756.505 324.91 756.5C 324.862 756.495 324.768 756.485 324.72 756.48C 324.673 756.475 324.673 756.475 324.673 756.475C 324.673 756.475 324.673 756.475 321.202 756.338C 317.732 756.201 310.791 755.928 307.285 752.612C 303.779 749.296 303.708 742.938 303.675 739.523C 303.642 736.109 303.647 735.638 303.65 735.403C 303.652 735.167 303.652 735.167 303.652 735.167C 303.652 735.167 303.652 735.167 303.647 735.167C 303.642 735.167 303.632 735.167 303.627 735.167C 303.622 735.167 303.622 735.167 303.622 735.167C 303.622 735.167 303.622 735.167 303.622 735.167C 303.622 735.167 303.622 735.167 303.622 723.87C 303.622 712.572 303.622 689.977 303.622 689.977"/>
<path style="stroke:#000000; stroke-width:0.850394; stroke-linejoin:round; stroke-linecap:round; fill:#000000" d="M 245.269 727.018C 241.246 727.018 239.613 725.386 238.797 723.899C 237.98 722.412 237.98 721.071 237.98 720.4C 237.98 719.729 237.98 719.729 237.98 719.058C 237.98 718.388 237.98 717.047 238.525 715.833C 239.069 714.618 240.158 713.531 241.372 712.987C 242.587 712.443 243.928 712.443 244.599 712.443C 245.269 712.443 245.269 712.443 245.269 712.443C 245.269 712.443 245.269 712.443 251.508 712.443C 257.748 712.443 270.227 712.443 276.466 712.443C 282.706 712.443 282.706 712.443 282.706 712.443C 282.706 712.443 282.706 712.443 283.376 712.443C 284.046 712.443 285.387 712.443 286.602 712.987C 287.816 713.531 288.904 714.618 289.448 715.833C 289.992 717.047 289.992 718.388 289.992 719.058C 289.992 719.729 289.992 719.729 289.992 720.4C 289.992 721.071 289.992 722.412 289.448 723.627C 288.904 724.842 287.816 725.93 286.602 726.474C 285.387 727.018 284.046 727.018 283.376 727.018C 282.706 727.018 282.706 727.018 282.706 727.018C 282.706 727.018 282.706 727.018 273.346 727.018C 263.987 727.018 245.269 727.018 245.269 727.018"/>
<path style="stroke:#000000; stroke-width:0.850394; stroke-linejoin:round; stroke-linecap:round; fill:#000000" d="M 248.614 756.904C 248.197 756.904 247.994 756.899 247.825 756.894C 247.656 756.889 247.522 756.884 247.454 756.881C 247.387 756.878 247.387 756.878 247.387 756.878C 247.387 756.878 247.387 756.878 247.034 756.878C 246.681 756.878 245.975 756.878 245.622 756.878C 245.269 756.878 245.269 756.878 245.269 756.878C 245.269 756.878 245.269 756.878 245.12 756.878C 244.972 756.878 244.675 756.878 244.383 756.852C 244.092 756.825 243.807 756.772 243.533 756.696C 243.259 756.62 242.997 756.522 242.866 756.473C 242.734 756.424 242.734 756.424 241.422 756.212C 240.109 756.001 237.484 755.577 234.997 754.742C 232.509 753.906 230.159 752.659 228.085 751.135C 226.011 749.612 224.213 747.813 223.314 746.913C 222.415 746.014 222.415 746.014 221.294 744.893C 220.172 743.771 217.93 741.529 216.115 738.859C 214.299 736.189 212.911 733.092 212.217 729.832C 211.522 726.572 211.522 723.151 211.522 721.44C 211.522 719.729 211.522 719.729 211.522 718.019C 211.522 716.309 211.522 712.889 212.217 709.63C 212.911 706.37 214.299 703.272 216.115 700.602C 217.93 697.931 220.172 695.689 221.294 694.568C 222.415 693.446 222.415 693.446 223.323 692.538C 224.232 691.631 226.048 689.815 228.145 688.279C 230.241 686.743 232.617 685.488 235.133 684.655C 237.649 683.821 240.305 683.41 241.633 683.204C 242.96 682.998 242.96 682.998 243.082 682.959C 243.203 682.919 243.445 682.839 243.695 682.777C 243.945 682.716 244.203 682.672 244.467 682.65C 244.731 682.628 245 682.628 245.134 682.628C 245.269 682.628 245.269 682.628 245.269 682.628C 245.269 682.628 245.269 682.628 245.467 682.628C 245.665 682.628 246.061 682.628 246.259 682.628C 246.458 682.628 246.458 682.628 246.458 682.628C 246.458 682.628 246.458 682.628 246.577 682.62C 246.696 682.613 246.935 682.599 247.173 682.587C 247.412 682.576 247.649 682.568 247.889 682.563C 248.129 682.558 248.372 682.557 248.493 682.557C 248.614 682.557 248.614 682.557 248.614 682.557C 248.614 682.557 248.614 682.557 248.614 682.568C 248.614 682.58 248.614 682.604 248.614 682.616C 248.614 682.628 248.614 682.628 248.614 682.628C 248.614 682.628 248.614 682.628 248.614 682.628C 248.614 682.628 248.614 682.628 254.296 682.628C 259.978 682.628 271.342 682.628 277.024 682.628C 282.706 682.628 282.706 682.628 282.706 682.628C 282.706 682.628 282.706 682.628 283.376 682.628C 284.046 682.628 285.387 682.628 286.602 683.171C 287.816 683.714 288.904 684.8 289.448 686.014C 289.992 687.229 289.992 688.571 289.992 689.242C 289.992 689.914 289.992 689.914 289.992 690.584C 289.992 691.255 289.992 692.596 289.448 693.81C 288.904 695.024 287.816 696.112 286.602 696.656C 285.387 697.2 284.046 697.2 283.376 697.2C 282.706 697.2 282.706 697.2 282.706 697.2C 282.706 697.2 282.706 697.2 276.746 697.2C 270.786 697.2 258.867 697.2 252.907 697.2C 246.948 697.2 246.948 697.2 246.948 697.2C 246.948 697.2 246.948 697.2 246.024 697.271C 245.1 697.341 243.252 697.483 241.497 697.958C 239.742 698.432 238.08 699.241 236.632 700.262C 235.184 701.284 233.95 702.518 233.333 703.135C 232.716 703.752 232.716 703.752 232.035 704.434C 231.354 705.115 229.991 706.478 228.888 708.101C 227.785 709.724 226.941 711.606 226.519 713.588C 226.097 715.569 226.097 717.649 226.097 718.689C 226.097 719.729 226.097 719.729 226.097 720.769C 226.097 721.81 226.097 723.891 226.519 725.872C 226.941 727.854 227.785 729.737 228.888 731.36C 229.991 732.982 231.354 734.345 232.035 735.027C 232.716 735.708 232.716 735.708 233.36 736.352C 234.004 736.997 235.293 738.285 236.813 739.341C 238.333 740.397 240.086 741.221 241.933 741.676C 243.781 742.132 245.724 742.219 246.695 742.263C 247.666 742.306 247.666 742.306 247.666 742.306C 247.666 742.306 247.666 742.306 253.506 742.306C 259.346 742.306 271.026 742.306 276.866 742.306C 282.706 742.306 282.706 742.306 282.706 742.306C 282.706 742.306 282.706 742.306 283.376 742.306C 284.046 742.306 285.387 742.306 286.602 742.85C 287.816 743.393 288.904 744.48 289.448 745.695C 289.992 746.91 289.992 748.252 289.992 748.924C 289.992 749.595 289.992 749.595 289.992 750.265C 289.992 750.936 289.992 752.277 289.448 753.491C 288.904 754.705 287.816 755.792 286.602 756.335C 285.387 756.878 284.046 756.878 283.376 756.878C 282.706 756.878 282.706 756.878 282.706 756.878C 282.706 756.878 282.706 756.878 277.024 756.878C 271.342 756.878 259.978 756.878 254.296 756.878C 248.614 756.878 248.614 756.878 248.614 756.878C 248.614 756.878 248.614 756.878 248.614 756.878C 248.614 756.878 248.614 756.878 248.614 756.885C 248.614 756.891 248.614 756.904 248.614 756.904"/>
<path style="stroke:#000000; stroke-width:0.850394; stroke-linejoin:round; stroke-linecap:round; fill:#000000" d="M 177.136 749.338C 177.136 753.366 175.507 754.998 174.021 755.814C 172.536 756.63 171.194 756.63 170.523 756.63C 169.852 756.63 169.852 756.63 169.182 756.63C 168.511 756.63 167.169 756.63 165.954 756.086C 164.74 755.542 163.653 754.454 163.11 753.239C 162.566 752.024 162.566 750.681 162.566 750.01C 162.566 749.338 162.566 749.338 162.566 749.338C 162.566 749.338 162.566 749.338 162.566 742.458C 162.566 735.577 162.566 721.816 162.566 714.935C 162.566 708.054 162.566 708.054 162.566 708.054C 162.566 708.054 162.566 708.054 162.566 707.383C 162.566 706.713 162.566 705.371 163.11 704.156C 163.653 702.941 164.74 701.853 165.954 701.309C 167.169 700.766 168.511 700.766 169.182 700.766C 169.852 700.766 169.852 700.766 170.523 700.766C 171.194 700.766 172.536 700.766 173.75 701.309C 174.964 701.853 176.05 702.941 176.593 704.156C 177.136 705.371 177.136 706.713 177.136 707.383C 177.136 708.054 177.136 708.054 177.136 708.054C 177.136 708.054 177.136 708.054 177.136 718.375C 177.136 728.696 177.136 749.338 177.136 749.338"/>
<path style="stroke:#000000; stroke-width:0.850394; stroke-linejoin:round; stroke-linecap:round; fill:#000000" d="M 137.876 696.755C 133.851 696.755 132.219 695.124 131.403 693.637C 130.587 692.15 130.587 690.809 130.587 690.138C 130.587 689.467 130.587 689.467 130.587 688.796C 130.587 688.126 130.587 686.785 131.131 685.571C 131.675 684.356 132.763 683.268 133.978 682.724C 135.193 682.181 136.534 682.181 137.205 682.181C 137.876 682.181 137.876 682.181 137.876 682.181C 137.876 682.181 137.876 682.181 148.535 682.181C 159.194 682.181 180.513 682.181 191.172 682.181C 201.831 682.181 201.831 682.181 201.831 682.181C 201.831 682.181 201.831 682.181 202.502 682.181C 203.172 682.181 204.513 682.181 205.728 682.724C 206.942 683.268 208.03 684.356 208.574 685.571C 209.117 686.785 209.117 688.126 209.117 688.796C 209.117 689.467 209.117 689.467 209.117 690.138C 209.117 690.809 209.117 692.15 208.574 693.365C 208.03 694.58 206.942 695.668 205.728 696.212C 204.513 696.755 203.172 696.755 202.502 696.755C 201.831 696.755 201.831 696.755 201.831 696.755C 201.831 696.755 201.831 696.755 185.842 696.755C 169.854 696.755 137.876 696.755 137.876 696.755"/>
<path style="stroke:#000000; stroke-width:0.850394; stroke-linejoin:round; stroke-linecap:round; fill:#000000" d="M 37.5483 756.904C 47.7754 756.878 52.4051 754.801 55.8382 752.644C 59.2714 750.487 61.5079 748.251 62.6262 747.132C 63.7445 746.014 63.7445 746.014 64.8653 744.893C 65.9861 743.771 68.2278 741.529 70.0423 738.859C 71.8569 736.189 73.2444 733.092 73.9381 729.832C 74.6318 726.572 74.6318 723.151 74.6318 721.44C 74.6318 719.729 74.6318 719.729 74.6318 718.019C 74.6318 716.309 74.6318 712.889 73.9381 709.63C 73.2444 706.37 71.8569 703.272 70.0423 700.602C 68.2278 697.931 65.9861 695.689 64.8653 694.568C 63.7445 693.446 63.7445 693.446 62.6262 692.328C 61.5079 691.211 59.2714 688.975 56.6098 687.165C 53.9483 685.354 50.8618 683.969 47.6141 683.272C 44.3663 682.575 40.9573 682.566 39.2528 682.561C 37.5483 682.557 37.5483 682.557 37.5483 682.557C 37.5483 682.557 37.5483 682.557 37.5483 682.559C 37.5483 682.562 37.5483 682.568 37.5483 682.571C 37.5483 682.574 37.5483 682.574 37.5483 682.574C 37.5483 682.574 37.5483 682.574 36.8969 682.598C 36.2455 682.621 34.9426 682.667 33.7706 683.226C 32.5986 683.785 31.5573 684.856 31.0367 686.048C 30.5161 687.24 30.5161 688.554 30.5161 689.211C 30.5161 689.868 30.5161 689.868 30.5161 690.539C 30.5161 691.211 30.5161 692.553 31.0608 693.769C 31.6056 694.985 32.6951 696.075 33.9111 696.62C 35.1272 697.164 36.4698 697.164 37.1411 697.164C 37.8124 697.164 37.8124 697.164 37.8391 697.164C 37.8658 697.164 37.9191 697.164 37.9733 697.164C 38.0274 697.163 38.0825 697.161 38.1366 697.158C 38.1908 697.155 38.2442 697.151 38.2708 697.149C 38.2975 697.147 38.2975 697.147 39.2816 697.183C 40.2657 697.219 42.2339 697.291 44.1069 697.74C 45.9798 698.19 47.7576 699.018 49.297 700.083C 50.8364 701.148 52.1376 702.45 52.7881 703.101C 53.4387 703.752 53.4387 703.752 54.1206 704.434C 54.8025 705.115 56.1663 706.478 57.2697 708.101C 58.3732 709.724 59.2163 711.606 59.6379 713.588C 60.0595 715.569 60.0595 717.649 60.0595 718.689C 60.0595 719.729 60.0595 719.729 60.0595 720.769C 60.0595 721.81 60.0595 723.891 59.6379 725.872C 59.2163 727.854 58.3732 729.737 57.2697 731.36C 56.1663 732.982 54.8025 734.345 54.1206 735.027C 53.4387 735.708 53.4387 735.708 52.7898 736.358C 52.141 737.007 50.8432 738.305 49.3084 739.369C 47.7737 740.432 46.0019 741.26 44.1344 741.711C 42.2669 742.163 40.3038 742.238 39.3222 742.276C 38.3407 742.314 38.3407 742.314 38.3119 742.311C 38.2831 742.309 38.2255 742.304 38.1671 742.3C 38.1087 742.296 38.0494 742.293 37.9902 742.292C 37.9309 742.291 37.8717 742.291 37.842 742.291C 37.8124 742.291 37.8124 742.291 37.1411 742.291C 36.4698 742.291 35.1272 742.291 33.9111 742.836C 32.6951 743.38 31.6056 744.47 31.0608 745.687C 30.5161 746.904 30.5161 748.248 30.5161 748.92C 30.5161 749.592 30.5161 749.592 30.5161 750.249C 30.5161 750.905 30.5161 752.218 31.0367 753.411C 31.5573 754.603 32.5986 755.675 33.7706 756.233C 34.9426 756.792 36.2455 756.838 36.8969 756.861C 37.5483 756.884 37.5483 756.884 37.5483 756.884C 37.5483 756.884 37.5483 756.884 37.5483 756.889C 37.5483 756.894 37.5483 756.904 37.5483 756.904"/>
<path style="stroke:#000000; stroke-width:0.850394; stroke-linejoin:round; stroke-linecap:round; fill:#000000" d="M 113.765 742.291C 117.795 742.291 119.429 743.925 120.247 745.414C 121.064 746.904 121.064 748.248 121.064 748.92C 121.064 749.592 121.064 749.592 121.064 750.249C 121.064 750.905 121.064 752.218 120.542 753.411C 120.021 754.603 118.978 755.675 117.806 756.233C 116.634 756.792 115.333 756.838 114.682 756.861C 114.032 756.884 114.032 756.884 114.032 756.884C 114.032 756.884 114.032 756.884 114.032 756.887C 114.032 756.89 114.032 756.897 114.032 756.901C 114.032 756.904 114.032 756.904 114.032 756.904C 114.032 756.904 114.032 756.904 112.327 756.9C 110.622 756.895 107.212 756.887 103.963 756.19C 100.715 755.494 97.6273 754.109 94.9657 752.298C 92.3042 750.487 90.0685 748.251 88.9507 747.132C 87.8328 746.014 87.8328 746.014 86.7115 744.893C 85.5903 743.771 83.3478 741.529 81.5328 738.859C 79.7179 736.189 78.3304 733.092 77.6366 729.832C 76.9429 726.572 76.9429 723.151 76.9429 721.44C 76.9429 719.729 76.9429 719.729 76.9429 718.019C 76.9429 716.309 76.9429 712.889 77.6366 709.63C 78.3304 706.37 79.7179 703.272 81.5328 700.602C 83.3478 697.931 85.5903 695.689 86.7115 694.568C 87.8328 693.446 87.8328 693.446 88.9507 692.328C 90.0685 691.211 92.3042 688.975 94.9657 687.165C 97.6273 685.354 100.715 683.969 103.963 683.272C 107.212 682.575 110.622 682.566 112.327 682.561C 114.032 682.557 114.032 682.557 114.032 682.557C 114.032 682.557 114.032 682.557 114.032 682.559C 114.032 682.562 114.032 682.568 114.032 682.571C 114.032 682.574 114.032 682.574 114.032 682.574C 114.032 682.574 114.032 682.574 114.682 682.598C 115.333 682.621 116.634 682.667 117.806 683.226C 118.978 683.785 120.021 684.856 120.542 686.048C 121.064 687.24 121.064 688.554 121.064 689.211C 121.064 689.868 121.064 689.868 121.064 690.539C 121.064 691.211 121.064 692.553 120.519 693.769C 119.974 694.985 118.885 696.075 117.668 696.62C 116.452 697.164 115.108 697.164 114.437 697.164C 113.765 697.164 113.765 697.164 113.738 697.164C 113.711 697.164 113.657 697.164 113.602 697.164C 113.548 697.163 113.494 697.161 113.441 697.158C 113.387 697.155 113.335 697.151 113.309 697.149C 113.282 697.147 113.282 697.147 112.297 697.183C 111.312 697.219 109.343 697.291 107.47 697.74C 105.597 698.19 103.821 699.018 102.282 700.083C 100.743 701.148 99.4406 702.45 98.7896 703.101C 98.1386 703.752 98.1386 703.752 97.4567 704.434C 96.7748 705.115 95.411 706.478 94.3071 708.101C 93.2032 709.724 92.3592 711.606 91.9372 713.588C 91.5152 715.569 91.5152 717.649 91.5152 718.689C 91.5152 719.729 91.5152 719.729 91.5152 720.769C 91.5152 721.81 91.5152 723.891 91.9372 725.872C 92.3592 727.854 93.2032 729.737 94.3071 731.36C 95.411 732.982 96.7748 734.345 97.4567 735.027C 98.1386 735.708 98.1386 735.708 98.7879 736.358C 99.4372 737.007 100.736 738.305 102.27 739.369C 103.804 740.432 105.575 741.26 107.441 741.711C 109.308 742.163 111.271 742.238 112.253 742.276C 113.234 742.314 113.234 742.314 113.264 742.311C 113.293 742.309 113.353 742.304 113.426 742.299C 113.499 742.295 113.587 742.291 113.765 742.291"/>
</g>
</svg>